<?xml version="1.0" encoding="utf-8"?>
<!-- Generator: Adobe Illustrator 17.0.0, SVG Export Plug-In . SVG Version: 6.00 Build 0)  -->
<svg version="1.2" baseProfile="tiny" xmlns="http://www.w3.org/2000/svg" xmlns:xlink="http://www.w3.org/1999/xlink" x="0px"
	 y="0px" width="64px" height="64px" viewBox="0 0 64 64" xml:space="preserve">
<g id="Слой_1">
	<g>
		<g>
			<path fill="#201600" d="M19.518,11.639c0.227-1.192,0.331-1.276,1.495-1.277c0.967-0.001,1.933-0.01,2.9,0.003
				c0.349,0.005,0.526-0.125,0.677-0.453C25.404,8.148,26.735,7.016,28.733,7c2.053-0.016,3.419,1.122,4.242,2.941
				c0.156,0.344,0.366,0.426,0.698,0.422c0.926-0.01,1.853-0.001,2.779-0.004c1.285-0.004,1.354,0.043,1.696,1.278
				c1.449,0,2.916,0.004,4.382-0.001c2.64-0.009,4.342,1.685,4.342,4.327c0,4.712,0,9.424,0,14.136c0,0.161,0.011,0.324-0.006,0.483
				c-0.056,0.531-0.474,0.943-0.952,0.904c-0.529-0.043-0.839-0.356-0.91-0.884c-0.024-0.178-0.008-0.362-0.008-0.543
				c0-4.793,0.001-9.585-0.001-14.378c0-1.491-0.68-2.174-2.175-2.179c-1.566-0.006-3.132-0.001-4.743-0.001
				c0,1.159,0,2.252,0,3.423c1.068,0,2.109-0.001,3.15,0c1.004,0.001,1.295,0.289,1.296,1.285c0.001,4.491,0.002,8.981,0,13.472
				c0,0.754-0.278,1.129-0.843,1.177c-0.642,0.055-1.029-0.347-1.03-1.107c-0.006-2.859-0.003-5.719-0.003-8.578
				c0-1.427,0-2.854,0-4.333c-7.907,0-15.769,0-23.684,0c0,10.035,0,20.09,0,30.2c7.858,0,15.734,0,23.684,0
				c0-0.246,0-0.481,0-0.716c-0.001-1.832-0.002-3.665-0.002-5.497c0-0.141,0-0.282,0.002-0.423
				c0.011-0.722,0.366-1.173,0.929-1.181c0.568-0.008,0.944,0.444,0.946,1.161c0.005,2.034,0.002,4.068,0.003,6.101
				c0,0.463,0.007,0.926-0.003,1.389c-0.016,0.734-0.35,1.08-1.073,1.081c-8.457,0.004-16.915,0.004-25.372,0
				c-0.736,0-1.044-0.374-1.044-1.232c-0.003-5.034-0.003-10.068-0.003-15.103c0-5.457,0.001-10.914,0.002-16.371
				c0-1.041,0.283-1.327,1.315-1.326c0.906,0.001,1.813-0.013,2.718,0.006c0.374,0.008,0.555-0.086,0.543-0.502
				c-0.024-0.805-0.023-1.611,0-2.416c0.011-0.401-0.144-0.519-0.531-0.515c-1.329,0.017-2.658,0.003-3.987,0.004
				c-1.923,0.001-2.506,0.591-2.507,2.538c-0.002,2.598-0.001,5.195-0.001,7.793c0,9.585,0,19.17,0,28.755
				c0,0.161-0.002,0.322,0.001,0.483c0.026,1.344,0.718,2.053,2.058,2.06c2.275,0.012,4.551,0.003,6.826,0.003
				c7.089,0,14.177,0.001,21.266-0.003c1.652-0.001,2.26-0.612,2.261-2.253c0.003-4.672,0.004-9.344-0.002-14.015
				c-0.001-0.525,0.106-0.976,0.663-1.151c0.683-0.214,1.215,0.25,1.218,1.068c0.008,2.477,0.004,4.954,0.003,7.43
				c0,2.255-0.001,4.511-0.002,6.766c-0.002,2.236-1.789,4.022-4.023,4.022C33.466,57,24.082,57,14.698,57
				c-2.148,0-3.94-1.752-3.941-3.899c-0.006-12.485-0.006-24.97,0.001-37.454c0.001-2.263,1.755-3.993,4.028-4.006
				C16.355,11.631,17.923,11.639,19.518,11.639z M21.433,12.187c0,1.502,0.001,2.924-0.001,4.347c0,0.388,0.265,0.382,0.54,0.382
				c4.567-0.002,9.134-0.004,13.701,0.003c0.355,0.001,0.505-0.104,0.499-0.482c-0.018-1.247-0.021-2.495-0.004-3.742
				c0.006-0.404-0.154-0.52-0.534-0.513c-0.945,0.019-1.891,0.006-2.837,0.008c-1.074,0.002-1.226-0.123-1.426-1.192
				c-0.259-1.378-1.235-2.194-2.608-2.182c-1.391,0.013-2.331,0.814-2.59,2.207c-0.196,1.054-0.333,1.165-1.44,1.164
				C23.673,12.186,22.611,12.187,21.433,12.187z"/>
			<path fill="#201600" d="M42.85,57.125H14.699c-2.241,0-4.065-1.805-4.066-4.023c-0.006-12.485-0.005-24.97,0.001-37.455
				c0.001-2.342,1.787-4.117,4.153-4.131c0.614-0.004,1.228-0.005,1.844-0.005l2.785,0.003c0.228-1.153,0.403-1.275,1.598-1.277
				l1.66-0.004c0.414,0,0.828,0.002,1.242,0.008c0,0,0,0,0,0c0.295,0,0.428-0.093,0.561-0.381c0.907-1.964,2.338-2.969,4.256-2.984
				h0.042c1.957,0,3.409,1.015,4.314,3.015c0.134,0.296,0.296,0.35,0.568,0.35c0.374-0.004,0.731-0.005,1.09-0.005h1.813
				c1.199,0,1.351,0.098,1.683,1.278l2.595,0.002c0.563,0,1.127-0.001,1.691-0.003c2.722,0,4.468,1.747,4.468,4.452l0,14.136
				l0.001,0.133c0.002,0.118,0.005,0.241-0.008,0.364c-0.064,0.597-0.55,1.059-1.087,1.016c-0.58-0.048-0.944-0.399-1.023-0.992
				c-0.019-0.138-0.015-0.275-0.012-0.408c0.001-0.051,0.002-0.102,0.002-0.151L44.87,15.682c0-1.415-0.632-2.049-2.05-2.055
				c-0.586-0.002-1.173-0.003-1.762-0.003l-2.856,0.002V16.8h3.025c1.076,0.001,1.421,0.344,1.421,1.41
				c0.001,4.49,0.002,8.981,0,13.472c0,0.81-0.323,1.248-0.958,1.302c-0.726,0.048-1.165-0.409-1.166-1.231
				c-0.004-2.145-0.004-4.289-0.003-6.434l0-6.353H17.087v29.949h23.435l-0.002-6.088c0-0.143,0-0.283,0.002-0.426
				c0.012-0.795,0.416-1.295,1.052-1.304c0.656,0,1.071,0.505,1.073,1.286c0.003,1.525,0.003,3.051,0.003,4.576l0,1.525l0.001,0.408
				c0.001,0.328,0.003,0.656-0.004,0.984c-0.018,0.809-0.41,1.202-1.198,1.202c-8.457,0.004-16.915,0.004-25.372,0
				c-0.797,0-1.169-0.431-1.169-1.356c-0.003-5.034-0.003-10.068-0.003-15.103l0.002-16.371c0-1.112,0.335-1.451,1.435-1.451
				l1.574-0.004c0.384,0,0.769,0.003,1.153,0.011h0.038c0.16,0,0.258-0.023,0.309-0.076c0.05-0.051,0.072-0.148,0.068-0.297
				c-0.023-0.779-0.023-1.594,0-2.424c0.004-0.154-0.019-0.255-0.07-0.308c-0.052-0.054-0.152-0.078-0.313-0.078
				c-0.935,0.012-1.814,0.008-2.71,0.006c-0.386-0.001-0.772-0.002-1.159-0.002h-0.141c-1.846,0.002-2.38,0.543-2.382,2.413
				c-0.001,1.95-0.001,3.899-0.001,5.85V52.73c0,0.112-0.001,0.226,0.001,0.338c0.024,1.28,0.675,1.932,1.934,1.938
				c0.896,0.005,1.793,0.007,2.689,0.007l11.233-0.004c4.723,0,9.446,0,14.169-0.003c1.576-0.001,2.135-0.558,2.136-2.128
				c0.003-4.672,0.004-9.343-0.001-14.015c-0.001-0.481,0.083-1.062,0.75-1.271c0.123-0.039,0.244-0.059,0.361-0.059
				c0.598,0,1.018,0.513,1.02,1.246c0.006,1.893,0.005,3.784,0.004,5.678L47,46.212c0,2.255,0,4.511-0.002,6.766
				C46.996,55.264,45.136,57.125,42.85,57.125z M16.63,11.761c-0.615,0-1.229,0.001-1.843,0.005
				c-2.224,0.013-3.902,1.681-3.904,3.881c-0.006,12.485-0.007,24.97-0.001,37.455c0.001,2.081,1.713,3.773,3.816,3.773H42.85
				c2.148,0,3.896-1.748,3.898-3.897c0.002-2.255,0.002-4.511,0.002-6.766l0.001-1.753c0.001-1.893,0.002-3.785-0.004-5.678
				c-0.002-0.715-0.464-1.138-1.055-0.949c-0.479,0.15-0.576,0.521-0.575,1.032c0.005,4.672,0.004,9.343,0.001,14.015
				c-0.001,1.71-0.67,2.377-2.386,2.378c-4.723,0.003-9.446,0.003-14.169,0.003l-11.233,0.004c-0.896,0-1.793-0.002-2.69-0.007
				c-1.401-0.007-2.156-0.762-2.183-2.184c-0.002-0.114-0.002-0.229-0.001-0.344l0-0.142l0-30.698c0-1.95,0-3.899,0.001-5.85
				c0.001-2.014,0.641-2.661,2.632-2.663h0.141c0.772,0,1.545,0.004,2.319,0.004c0.508,0,1.017-0.001,1.526-0.008
				c0,0,0.001,0,0.001,0c0.26,0,0.412,0.048,0.515,0.153c0.103,0.105,0.147,0.261,0.141,0.489c-0.023,0.825-0.023,1.636,0,2.409
				c0.006,0.223-0.038,0.375-0.139,0.479c-0.131,0.135-0.33,0.151-0.488,0.151h-0.043c-0.383-0.008-0.765-0.011-1.147-0.011
				l-1.568,0.004c-0.958,0-1.19,0.235-1.19,1.201l-0.002,16.371c0,5.034,0,10.068,0.003,15.103c0,0.796,0.258,1.106,0.919,1.106
				c8.458,0.004,16.915,0.004,25.372,0c0.649,0,0.933-0.286,0.948-0.958c0.007-0.325,0.006-0.651,0.004-0.978l-0.001-0.409l0-1.525
				c0-1.525,0-3.051-0.003-4.576c-0.002-0.639-0.311-1.036-0.807-1.036c-0.507,0.007-0.809,0.402-0.819,1.058
				c-0.002,0.141-0.002,0.281-0.002,0.422l0.002,6.338H16.837V18.716h23.934l0,6.603c0,2.145-0.001,4.289,0.003,6.434
				c0.001,0.677,0.324,1.046,0.895,0.981c0.339-0.028,0.729-0.174,0.729-1.052c0.003-4.49,0.002-8.981,0-13.472
				c0-0.932-0.23-1.159-1.171-1.16h-3.275v-3.673l3.106-0.002c0.589,0,1.176,0.001,1.763,0.003c1.569,0.006,2.299,0.738,2.299,2.305
				l0.001,14.378c0,0.052-0.001,0.104-0.002,0.157c-0.003,0.129-0.006,0.251,0.01,0.369c0.064,0.478,0.332,0.738,0.796,0.775
				c0.403,0.045,0.769-0.327,0.817-0.792c0.012-0.107,0.01-0.218,0.007-0.333l-0.001-0.138l0-14.136
				c0-2.553-1.648-4.202-4.197-4.202c-0.584,0.002-1.149,0.003-1.712,0.003l-2.785-0.002l-0.025-0.092
				c-0.32-1.153-0.361-1.187-1.468-1.187h-1.813c-0.357,0-0.714,0.001-1.072,0.005h0c-0.314,0-0.616-0.061-0.813-0.496
				C32,8.09,30.625,7.125,28.775,7.125h-0.041c-1.812,0.015-3.169,0.971-4.032,2.84c-0.173,0.373-0.396,0.525-0.771,0.525
				c-0.433-0.006-0.846-0.008-1.259-0.008l-1.66,0.004c-1.105,0.002-1.157,0.046-1.372,1.176l-0.019,0.102L16.63,11.761z
				 M35.679,17.043c-2.289-0.004-4.572-0.004-6.855-0.004l-6.851,0.001c-0.001,0-0.003,0-0.005,0c-0.194,0-0.4-0.001-0.534-0.135
				c-0.085-0.086-0.126-0.207-0.126-0.372c0.001-1.062,0.001-2.124,0.001-3.22v-1.252h3.426l0,0c1.048,0,1.133-0.069,1.317-1.061
				c0.271-1.455,1.259-2.297,2.712-2.311c1.454,0,2.463,0.854,2.732,2.284c0.189,1.01,0.285,1.091,1.279,1.091l1.555,0.002
				c0.435,0,0.869-0.002,1.303-0.011h0.037c0.142,0,0.345,0.016,0.478,0.15c0.103,0.104,0.15,0.26,0.146,0.489
				c-0.017,1.183-0.016,2.406,0.004,3.738c0.003,0.215-0.041,0.362-0.139,0.461C36.031,17.026,35.835,17.043,35.679,17.043z
				 M28.823,16.789c2.283,0,4.567,0.001,6.851,0.004h0c0.162,0,0.258-0.023,0.307-0.072c0.047-0.048,0.069-0.141,0.067-0.282
				c-0.02-1.335-0.021-2.561-0.004-3.746c0.002-0.155-0.022-0.257-0.075-0.31c-0.051-0.053-0.146-0.076-0.3-0.076h-0.032
				c-0.436,0.009-0.872,0.011-1.308,0.011l-1.531-0.002c-1.139,0-1.338-0.169-1.55-1.294c-0.245-1.304-1.163-2.081-2.456-2.081
				c-1.351,0.012-2.25,0.779-2.496,2.105c-0.206,1.112-0.394,1.266-1.549,1.266h-3.19v1.002c0,1.096,0,2.158-0.001,3.22
				c0,0.094,0.018,0.16,0.053,0.195c0.062,0.062,0.206,0.062,0.334,0.062L28.823,16.789z"/>
		</g>
		<g>
			<path fill="#201600" d="M42.56,36.735c2.912-2.925,5.832-5.842,8.751-8.76c0.156-0.156,0.307-0.326,0.489-0.446
				c0.403-0.265,0.812-0.228,1.156,0.105c0.348,0.338,0.374,0.745,0.124,1.154c-0.093,0.152-0.232,0.277-0.359,0.405
				c-3.259,3.261-6.519,6.522-9.78,9.781c-0.721,0.721-1.115,0.723-1.827,0.014c-1.098-1.094-2.209-2.176-3.276-3.301
				c-0.22-0.232-0.396-0.644-0.356-0.942c0.035-0.265,0.364-0.631,0.623-0.69c0.289-0.065,0.726,0.076,0.956,0.284
				c0.849,0.77,1.643,1.602,2.446,2.421C41.663,36.918,42.392,36.904,42.56,36.735z"/>
			<path fill="#201600" d="M42.019,39.642c-0.298,0-0.595-0.17-0.993-0.565l-0.756-0.752c-0.835-0.828-1.699-1.684-2.522-2.552
				c-0.225-0.236-0.438-0.684-0.389-1.044c0.042-0.316,0.412-0.725,0.719-0.795c0.32-0.069,0.806,0.076,1.068,0.313
				c0.718,0.652,1.407,1.357,2.074,2.04l0.378,0.386c0.023,0.023,0.149,0.072,0.39,0.072c0.266,0,0.442-0.058,0.483-0.099
				c2.758-2.771,5.524-5.535,8.29-8.299l0.55-0.551c0.129-0.132,0.263-0.269,0.421-0.373c0.452-0.297,0.927-0.252,1.312,0.12
				c0.382,0.371,0.433,0.835,0.144,1.309c-0.085,0.141-0.203,0.256-0.316,0.368l-0.061,0.061c-3.259,3.261-6.519,6.521-9.78,9.78
				C42.623,39.469,42.321,39.642,42.019,39.642z M38.263,34.165c-0.047,0-0.091,0.005-0.129,0.014
				c-0.208,0.047-0.499,0.369-0.527,0.584c-0.033,0.241,0.112,0.617,0.323,0.839c0.82,0.865,1.683,1.72,2.516,2.546l0.757,0.752
				c0.346,0.346,0.59,0.493,0.816,0.493c0.229,0,0.478-0.152,0.833-0.508c3.261-3.259,6.521-6.52,9.78-9.779l0.063-0.062
				c0.107-0.105,0.208-0.205,0.278-0.319c0.229-0.374,0.193-0.71-0.104-0.999c-0.301-0.292-0.648-0.323-1-0.091
				c-0.136,0.09-0.255,0.211-0.38,0.339l-0.552,0.554c-2.765,2.763-5.531,5.526-8.289,8.297c-0.159,0.16-0.545,0.173-0.66,0.173
				c-0.158,0-0.443-0.02-0.568-0.146l-0.378-0.387c-0.664-0.68-1.351-1.383-2.063-2.029C38.81,34.28,38.502,34.165,38.263,34.165z"
				/>
		</g>
		<g>
			<path fill="#201600" d="M30.542,27.034c-1.568,0-3.136,0.003-4.704-0.001c-0.705-0.002-1.036-0.28-1.059-0.868
				c-0.024-0.627,0.316-0.985,1.016-0.988c3.176-0.01,6.353-0.01,9.529,0c0.701,0.002,1.066,0.368,1.043,0.969
				c-0.021,0.561-0.396,0.885-1.061,0.888C33.719,27.038,32.13,27.034,30.542,27.034z"/>
			<path fill="#201600" d="M33.263,27.16h-5.285c-0.713,0-1.427-0.001-2.14-0.003c-0.771-0.001-1.158-0.324-1.184-0.988
				c-0.013-0.343,0.074-0.613,0.259-0.807c0.197-0.205,0.493-0.31,0.881-0.311c3.177-0.011,6.353-0.012,9.531-0.001
				c0.392,0.002,0.707,0.113,0.908,0.324c0.182,0.189,0.271,0.457,0.26,0.774c-0.024,0.639-0.457,1.006-1.185,1.008
				C34.626,27.16,33.944,27.16,33.263,27.16z M30.542,26.909l2.721,0.001c0.682,0,1.363,0,2.044-0.003
				c0.414-0.001,0.912-0.136,0.936-0.768c0.009-0.251-0.055-0.45-0.19-0.592c-0.154-0.16-0.406-0.246-0.729-0.247
				c-3.177-0.01-6.352-0.011-9.529,0.001c-0.318,0.001-0.554,0.079-0.702,0.233c-0.136,0.143-0.2,0.353-0.189,0.624
				c0.021,0.523,0.3,0.747,0.934,0.748c0.713,0.002,1.427,0.003,2.14,0.003L30.542,26.909z"/>
		</g>
		<g>
			<path fill="#201600" d="M30.558,41.571c-1.568,0-3.136,0.005-4.703-0.002c-0.755-0.003-1.076-0.284-1.077-0.905
				c-0.001-0.624,0.327-0.914,1.068-0.915c3.156-0.004,6.311-0.004,9.467,0c0.695,0.001,1.039,0.296,1.055,0.873
				c0.017,0.618-0.322,0.941-1.046,0.946C33.734,41.578,32.146,41.571,30.558,41.571z"/>
			<path fill="#201600" d="M33.337,41.698l-2.779-0.002l-2.767,0.002c-0.646,0-1.291-0.001-1.937-0.004
				c-0.818-0.004-1.2-0.331-1.202-1.03c-0.001-0.328,0.083-0.572,0.256-0.746c0.197-0.197,0.503-0.293,0.937-0.294
				c3.155-0.004,6.311-0.004,9.467,0c0.952,0.001,1.167,0.542,1.18,0.994c0.009,0.326-0.075,0.583-0.25,0.765
				c-0.196,0.203-0.505,0.308-0.919,0.311C34.661,41.697,33.999,41.698,33.337,41.698z M30.558,41.446l2.779,0.002
				c0.662,0,1.323-0.001,1.984-0.005c0.344-0.002,0.594-0.081,0.742-0.234c0.126-0.131,0.187-0.327,0.18-0.583
				c-0.014-0.513-0.31-0.751-0.93-0.752c-3.157-0.004-6.312-0.004-9.467,0c-0.364,0-0.612,0.072-0.76,0.221
				c-0.124,0.124-0.184,0.311-0.183,0.569c0.001,0.465,0.164,0.776,0.953,0.78c0.645,0.003,1.29,0.004,1.936,0.004L30.558,41.446z"
				/>
		</g>
		<g>
			<path fill="#201600" d="M30.524,34.32c-1.587,0-3.174-0.001-4.762,0.001c-0.526,0.001-0.903-0.183-0.976-0.758
				c-0.081-0.645,0.252-1.058,0.908-1.06c3.255-0.009,6.509-0.009,9.764,0.001c0.581,0.002,0.908,0.352,0.908,0.894
				c0,0.535-0.331,0.906-0.901,0.913c-1.647,0.018-3.295,0.006-4.942,0.006C30.524,34.318,30.524,34.319,30.524,34.32z"/>
			<path fill="#201600" d="M25.763,34.446h-0.004c-0.655,0-1.023-0.292-1.096-0.867c-0.045-0.363,0.03-0.668,0.218-0.882
				c0.183-0.208,0.465-0.318,0.814-0.319c3.256-0.008,6.51-0.009,9.765,0.001c0.637,0.002,1.033,0.393,1.033,1.02
				c0,0.624-0.402,1.03-1.024,1.037c-0.728,0.008-1.457,0.011-2.185,0.011l-2.641-0.004l-0.118,0.003L25.763,34.446z M30.306,32.622
				c-1.537,0-3.074,0.002-4.61,0.006c-0.276,0.001-0.493,0.082-0.627,0.235c-0.139,0.158-0.193,0.395-0.157,0.685
				c0.057,0.448,0.318,0.648,0.848,0.648v0.125l0.004-0.125l4.762-0.004l2.759,0.004c0.728,0,1.455-0.003,2.182-0.011
				c0.479-0.005,0.777-0.307,0.777-0.787c0-0.487-0.286-0.768-0.784-0.77C33.741,32.624,32.024,32.622,30.306,32.622z"/>
		</g>
		<g>
			<path fill="#201600" d="M21.41,39.773c0.488-0.014,0.921,0.399,0.94,0.898c0.02,0.521-0.415,0.976-0.928,0.971
				c-0.483-0.005-0.92-0.445-0.922-0.928C20.498,40.23,20.926,39.787,21.41,39.773z"/>
			<path fill="#201600" d="M21.43,41.767h-0.009c-0.555-0.006-1.044-0.497-1.045-1.053c-0.002-0.552,0.479-1.051,1.031-1.067
				c0,0,0,0,0,0c0.571,0,1.047,0.467,1.068,1.019c0.011,0.283-0.099,0.567-0.301,0.777C21.975,41.649,21.704,41.767,21.43,41.767z
				 M21.433,39.897c-0.434,0.013-0.81,0.402-0.808,0.816c0.001,0.417,0.381,0.8,0.798,0.804l0.007,0.125v-0.125
				c0.207,0,0.412-0.09,0.563-0.248c0.155-0.161,0.24-0.378,0.231-0.594C22.209,40.254,21.847,39.897,21.433,39.897z"/>
		</g>
		<g>
			<path fill="#201600" d="M21.404,27.031c-0.501-0.014-0.911-0.436-0.903-0.93c0.008-0.488,0.442-0.918,0.929-0.919
				c0.519-0.001,0.943,0.447,0.92,0.973C22.327,26.656,21.908,27.045,21.404,27.031z"/>
			<path fill="#201600" d="M21.43,27.156H21.4c-0.574-0.017-1.033-0.491-1.024-1.058c0.008-0.554,0.5-1.041,1.053-1.043
				c0.285,0,0.55,0.115,0.75,0.324c0.201,0.209,0.308,0.493,0.295,0.78C22.45,26.719,21.991,27.156,21.43,27.156z M21.431,25.305
				c-0.423,0.002-0.799,0.374-0.805,0.797c-0.007,0.423,0.351,0.791,0.781,0.804l0.022,0.125v-0.125
				c0.427,0,0.776-0.332,0.795-0.758c0.01-0.219-0.072-0.436-0.226-0.596C21.847,25.393,21.645,25.305,21.431,25.305z"/>
		</g>
		<g>
			<path fill="#201600" d="M22.35,33.381c0.015,0.518-0.37,0.919-0.893,0.931c-0.527,0.012-0.943-0.369-0.956-0.877
				c-0.013-0.505,0.39-0.92,0.904-0.932C21.937,32.49,22.336,32.861,22.35,33.381z"/>
			<path fill="#201600" d="M21.432,34.437c-0.587,0-1.041-0.429-1.056-0.999c-0.007-0.277,0.096-0.541,0.29-0.741
				c0.193-0.199,0.455-0.312,0.736-0.319h0c0.618,0,1.056,0.421,1.073,1c0.008,0.282-0.09,0.545-0.276,0.741
				c-0.188,0.198-0.451,0.312-0.739,0.318H21.432z M21.432,32.628c-0.239,0.005-0.439,0.092-0.586,0.244
				c-0.147,0.15-0.225,0.35-0.219,0.561c0.011,0.431,0.357,0.755,0.806,0.755v0.125l0.022-0.125
				c0.221-0.005,0.422-0.091,0.564-0.241c0.14-0.146,0.213-0.346,0.207-0.561C22.213,32.939,21.887,32.628,21.432,32.628z"/>
		</g>
		<g>
			<path fill="#201600" d="M28.837,11.09c0.435,0.063,0.678,0.311,0.647,0.766c-0.031,0.456-0.313,0.695-0.756,0.665
				c-0.443-0.03-0.688-0.307-0.661-0.762C28.094,11.297,28.385,11.103,28.837,11.09z"/>
			<path fill="#201600" d="M28.8,12.649c-0.026,0-0.052,0-0.08-0.002c-0.518-0.035-0.808-0.37-0.778-0.894
				c0.021-0.35,0.191-0.77,0.891-0.788c0.542,0.076,0.81,0.395,0.775,0.899C29.575,12.356,29.273,12.649,28.8,12.649z
				 M28.819,11.215c-0.4,0.012-0.606,0.188-0.627,0.553c-0.022,0.387,0.166,0.604,0.544,0.63c0.381,0.033,0.597-0.166,0.623-0.55
				C29.385,11.477,29.208,11.27,28.819,11.215z"/>
		</g>
	</g>
</g>
<g id="Слой_2">
</g>
<g id="Слой_3">
</g>
<g id="Слой_4">
</g>
<g id="Слой_5">
</g>
<g id="Слой_6">
</g>
<g id="Слой_7">
</g>
<g id="Слой_8">
</g>
</svg>
