<?xml version="1.0" encoding="utf-8"?>
<!-- Generator: Adobe Illustrator 17.0.0, SVG Export Plug-In . SVG Version: 6.00 Build 0)  -->
<svg version="1.2" baseProfile="tiny" xmlns="http://www.w3.org/2000/svg" xmlns:xlink="http://www.w3.org/1999/xlink" x="0px"
	 y="0px" width="64px" height="64px" viewBox="0 0 64 64" xml:space="preserve">
<g id="Слой_1">
</g>
<g id="Слой_2">
	<g>
		<path fill="#201600" d="M49.677,14.323c-4.722-4.722-11-7.322-17.677-7.322s-12.955,2.6-17.677,7.322C9.6,19.045,7,25.323,7,32
			s2.6,12.955,7.323,17.676c4.721,4.723,10.999,7.323,17.677,7.323s12.956-2.6,17.677-7.323C54.4,44.955,57,38.677,57,32
			S54.4,19.045,49.677,14.323z M54.488,32c0,6.006-2.339,11.652-6.587,15.9S38.006,54.487,32,54.487S20.347,52.148,16.099,47.9
			c-4.248-4.247-6.587-9.894-6.587-15.9c0-6.007,2.339-11.654,6.587-15.9C20.346,11.852,25.994,9.512,32,9.512
			s11.654,2.34,15.901,6.588C52.149,20.347,54.488,25.994,54.488,32z"/>
		<path fill="#201600" d="M32.819,15.854c-0.54,0-0.874,0.032-0.843,0.032H23.67v17.581h-3.907V36.4l3.907-0.001v2.927h-3.907v2.934
			h3.907v5.86h2.934v-5.86h6.837v-2.934h-6.837v-2.928l5.237-0.004c0.055,0.005,0.401,0.034,0.946,0.034
			c1.989,0,5.73-0.37,8.441-2.847c1.963-1.791,2.957-4.294,2.957-7.438s-0.995-5.647-2.957-7.438
			C38.414,16.132,34.41,15.854,32.819,15.854z M41.251,26.143c0.001,2.282-0.67,4.053-1.994,5.266
			c-2.052,1.879-5.249,2.082-6.528,2.082c-0.401,0-0.66-0.018-0.754-0.024h-5.371V18.818l5.505-0.005
			c0.027-0.003,0.273-0.022,0.667-0.022c1.262,0,4.418,0.203,6.473,2.079C40.577,22.083,41.251,23.856,41.251,26.143z"/>
	</g>
</g>
<g id="Слой_3">
</g>
<g id="Слой_4">
</g>
<g id="Слой_5">
</g>
<g id="Слой_6">
</g>
<g id="Слой_7">
</g>
<g id="Слой_8">
</g>
</svg>
