<?xml version="1.0" encoding="utf-8"?>
<!-- Generator: Adobe Illustrator 17.0.0, SVG Export Plug-In . SVG Version: 6.00 Build 0)  -->
<svg version="1.2" baseProfile="tiny" xmlns="http://www.w3.org/2000/svg" xmlns:xlink="http://www.w3.org/1999/xlink" x="0px"
	 y="0px" width="64px" height="64px" viewBox="0 0 64 64" xml:space="preserve">
<g id="Слой_1">
</g>
<g id="Слой_2">
</g>
<g id="Слой_3">
</g>
<g id="Слой_4">
</g>
<g id="Слой_5">
</g>
<g id="Слой_6">
</g>
<g id="Слой_7">
</g>
<g id="Слой_8">
	<g>
		<g>
			<path fill="#201600" d="M32.062,7.325C18.383,7.344,7.314,18.406,7.325,32.045c0.011,13.578,11.074,24.631,24.653,24.631
				c13.732-0.001,24.711-10.97,24.698-24.677C56.663,18.364,45.631,7.306,32.062,7.325z M31.599,55.416
				C18.937,55.311,8.51,44.655,8.597,31.908C8.687,18.943,19.236,8.516,32.194,8.585C45.11,8.654,55.507,19.252,55.414,32.257
				C55.322,45.272,44.779,55.524,31.599,55.416z"/>
			<path fill="#201600" d="M31.978,57h-0.003C18.215,57,7.011,45.805,7,32.045C6.989,18.255,18.232,7.02,32.062,7
				C45.816,7,56.987,18.214,57,31.999c0.006,6.715-2.582,13.005-7.289,17.707C45.003,54.41,38.705,57,31.978,57z M32.097,7.649
				C18.591,7.669,7.639,18.612,7.649,32.045C7.66,45.447,18.573,56.351,31.975,56.351v0.325l0.003-0.325
				c6.554,0,12.689-2.523,17.274-7.104c4.584-4.581,7.105-10.705,7.099-17.248C56.338,18.572,45.458,7.649,32.097,7.649z
				 M31.805,55.742l-0.209-0.001C18.646,55.633,8.183,44.94,8.273,31.906C8.363,18.867,19.036,8.259,32.065,8.259l0.13,0.001
				c6.304,0.034,12.222,2.528,16.662,7.025c4.483,4.539,6.927,10.568,6.882,16.974C55.645,45.427,45.132,55.742,31.805,55.742z
				 M32.065,8.909c-12.674,0-23.056,10.319-23.143,23.002c-0.086,12.463,10.3,23.078,22.679,23.181l0.204,0.001
				c12.966,0,23.194-10.032,23.285-22.838c0.044-6.233-2.333-12.097-6.694-16.513c-4.318-4.372-10.073-6.799-16.204-6.831
				L32.065,8.909z"/>
		</g>
		<path fill="#201600" d="M34.885,40.256c-1.05-2.198-2.1-4.396-2.872-6.013c-1.214,2.356-2.729,5.255-4.199,8.175
			c-0.409,0.813-0.782,1.666-1.004,2.542c-0.568,2.24,0.277,4.562,1.953,5.642c1.956,1.26,4.481,1.252,6.329-0.02
			c1.846-1.27,2.699-3.406,1.953-5.711C36.528,43.269,35.619,41.79,34.885,40.256z M30.244,48.18
			c0.053,0.064,0.129,0.136,0.133,0.208c0.026,0.489,0.036,0.979,0.051,1.469c-0.528-0.094-1.19-0.023-1.561-0.313
			c-1.29-1.006-1.654-2.493-1.187-3.932c0.602-1.852,1.542-3.597,2.336-5.389c0.146,0.058,0.291,0.116,0.437,0.174
			c-0.277,0.765-0.526,1.541-0.836,2.292C28.812,44.638,28.836,46.481,30.244,48.18z"/>
		<path fill="#201600" d="M17.803,29.771c-2.878-0.027-5.292,2.38-5.284,5.27c0.008,2.927,2.331,5.217,5.299,5.223
			c3.002,0.006,5.407-2.365,5.381-5.304C23.173,32.114,20.765,29.799,17.803,29.771z M22.324,36.847
			c-0.076,0.147-0.151,0.293-0.227,0.44c-0.882-0.335-1.764-0.67-3.016-1.145c0.541,1.147,0.941,1.996,1.341,2.845
			c-0.143,0.112-0.285,0.225-0.428,0.337c-0.557-0.796-1.115-1.593-1.672-2.389c-0.099,0.014-0.198,0.027-0.297,0.041
			c-0.068,0.503-0.084,1.02-0.218,1.505c-0.117,0.424-0.364,0.814-0.554,1.219c-0.078-0.426-0.211-0.851-0.22-1.278
			c-0.01-0.508,0.087-1.018,0.137-1.527c-0.168-0.108-0.337-0.217-0.505-0.325c-0.395,0.505-0.755,1.042-1.199,1.501
			c-0.213,0.221-0.583,0.295-0.882,0.436c0.12-0.329,0.175-0.702,0.373-0.976c0.352-0.487,0.791-0.914,1.059-1.637
			c-0.953,0.107-1.905,0.214-2.858,0.321c-0.048-0.161-0.096-0.322-0.144-0.483c0.937-0.274,1.875-0.549,3.159-0.925
			c-0.883-0.453-1.509-0.73-2.082-1.088c-0.253-0.158-0.396-0.483-0.59-0.733c0.294,0.009,0.614-0.054,0.876,0.04
			c0.623,0.224,1.218,0.521,2.172,0.943c-0.493-1.218-0.861-2.127-1.229-3.036c0.166-0.065,0.332-0.129,0.499-0.194
			c0.477,0.79,0.953,1.579,1.429,2.369c0.102-0.002,0.205-0.003,0.307-0.005c0.209-0.935,0.417-1.87,0.626-2.805
			c0.171,0.031,0.343,0.061,0.514,0.092c-0.048,0.906-0.096,1.812-0.168,3.161c0.939-0.865,1.626-1.498,2.313-2.131
			c0.129,0.068,0.259,0.137,0.388,0.205c-0.207,0.355-0.381,0.734-0.628,1.059c-0.318,0.419-0.694,0.795-1.045,1.19
			c0.039,0.113,0.078,0.226,0.117,0.339c0.898-0.129,1.796-0.258,2.705-0.389c-0.008,0.424-0.322,0.59-2.691,1.436
			C20.66,35.846,21.492,36.346,22.324,36.847z"/>
		<path fill="#201600" d="M45.509,29.742c-2.821-0.015-5.258,2.343-5.316,5.145c-0.061,2.938,2.193,5.271,5.168,5.349
			c2.987,0.079,5.444-2.254,5.48-5.201C50.874,32.245,48.369,29.757,45.509,29.742z M48.981,34.161
			c0.353,0.019,0.715-0.147,1.237-0.277c0,0.807,0,1.503,0,2.263c-0.657-0.129-1.168-0.229-1.68-0.329
			c-0.039,0.092-0.077,0.184-0.116,0.276c0.476,0.232,0.951,0.465,1.613,0.788c-0.444,0.602-0.862,1.17-1.349,1.83
			c-0.482-0.528-0.843-0.923-1.203-1.318c-0.094,0.073-0.188,0.145-0.282,0.218c0.264,0.474,0.528,0.947,0.866,1.554
			c-0.75,0.232-1.412,0.437-2.138,0.662c-0.109-0.639-0.192-1.132-0.276-1.624c-0.086-0.001-0.172-0.002-0.257-0.002
			c-0.088,0.452-0.176,0.903-0.309,1.586c-0.699-0.196-1.381-0.387-2.157-0.605c0.339-0.626,0.598-1.103,0.856-1.58
			c-0.085-0.063-0.169-0.125-0.254-0.188c-0.372,0.39-0.743,0.779-1.226,1.285c-0.45-0.609-0.882-1.193-1.35-1.825
			c0.626-0.296,1.121-0.53,1.615-0.764c-0.036-0.093-0.072-0.186-0.108-0.28c-0.499,0.098-0.998,0.196-1.651,0.324
			c0-0.725,0-1.426,0-2.202c0.574,0.087,1.113,0.169,1.651,0.251c0.032-0.092,0.065-0.185,0.097-0.277
			c-0.461-0.209-0.922-0.418-1.585-0.718c0.422-0.612,0.824-1.193,1.297-1.877c0.488,0.512,0.864,0.907,1.241,1.303
			c0.093-0.056,0.185-0.112,0.277-0.168c-0.251-0.454-0.502-0.908-0.853-1.543c0.715-0.236,1.393-0.459,2.163-0.713
			c0.106,0.679,0.185,1.191,0.265,1.703c0.09,0.01,0.181,0.021,0.271,0.031c0.086-0.514,0.172-1.029,0.286-1.71
			c0.733,0.229,1.419,0.443,2.136,0.667c-0.339,0.632-0.594,1.104-0.848,1.577c0.091,0.057,0.182,0.114,0.273,0.171
			c0.348-0.377,0.696-0.754,1.189-1.289c0.456,0.595,0.886,1.155,1.473,1.92c-0.704,0.16-1.194,0.271-1.676,0.38
			C48.638,33.848,48.801,34.151,48.981,34.161z"/>
		<path fill="#201600" d="M48.405,33.674L48.405,33.674l-0.001,0.001c0.119-0.292,0.239-0.585,0.389-0.951
			c-1.095,0.25-2.13,0.578-3.19,0.7c-0.986,0.113-1.734,0.542-1.666,1.462c0.043,0.58,0.624,1.353,1.173,1.612
			c0.884,0.417,1.518-0.18,1.968-1.014c0.352-0.653,0.883-1.214,1.34-1.812c0.017-0.004,0.034-0.008,0.051-0.012
			c-0.007-0.008-0.014-0.018-0.021-0.026L48.405,33.674z"/>
		<path fill="#201600" d="M15.482,23.647c0.145,0,0.267-0.069,0.365-0.207c0.099-0.138,0.148-0.413,0.148-0.826
			c0-0.415-0.049-0.691-0.148-0.828c-0.099-0.137-0.222-0.205-0.369-0.205c-0.145,0-0.261,0.06-0.347,0.181
			c-0.109,0.154-0.163,0.438-0.163,0.852c0,0.414,0.049,0.69,0.148,0.827C15.216,23.578,15.337,23.647,15.482,23.647z"/>
		<path fill="#201600" d="M15.493,25.396c1.013,0,1.834-0.806,1.834-1.8v-1.93c0-0.994-0.821-1.8-1.834-1.8
			c-1.013,0-1.834,0.806-1.834,1.8v1.93C13.659,24.59,14.481,25.396,15.493,25.396z M14.738,21.894
			c0.062-0.182,0.155-0.322,0.279-0.421c0.123-0.099,0.279-0.148,0.466-0.148c0.138,0,0.259,0.027,0.363,0.082
			c0.104,0.054,0.19,0.133,0.258,0.236c0.068,0.103,0.121,0.228,0.159,0.375c0.039,0.147,0.058,0.346,0.058,0.596
			c0,0.296-0.031,0.535-0.093,0.717c-0.062,0.182-0.155,0.322-0.278,0.422c-0.123,0.099-0.279,0.149-0.467,0.149
			c-0.248,0-0.442-0.087-0.584-0.262c-0.17-0.21-0.254-0.552-0.254-1.026C14.644,22.316,14.676,22.076,14.738,21.894z"/>
		<path fill="#201600" d="M20.2,23.647c0.145,0,0.267-0.069,0.366-0.207c0.099-0.138,0.148-0.413,0.148-0.826
			c0-0.415-0.049-0.691-0.148-0.828c-0.099-0.137-0.222-0.205-0.369-0.205c-0.145,0-0.261,0.06-0.347,0.181
			c-0.109,0.154-0.163,0.438-0.163,0.852c0,0.414,0.049,0.69,0.148,0.827C19.933,23.578,20.055,23.647,20.2,23.647z"/>
		<path fill="#201600" d="M20.205,25.396c1.013,0,1.834-0.806,1.834-1.8v-1.93c0-0.994-0.821-1.8-1.834-1.8
			c-1.013,0-1.834,0.806-1.834,1.8v1.93C18.371,24.59,19.192,25.396,20.205,25.396z M19.455,21.894
			c0.062-0.182,0.155-0.322,0.279-0.421c0.123-0.099,0.279-0.148,0.466-0.148c0.138,0,0.259,0.027,0.363,0.082
			c0.104,0.054,0.19,0.133,0.258,0.236c0.068,0.103,0.121,0.228,0.159,0.375c0.039,0.147,0.058,0.346,0.058,0.596
			c0,0.296-0.031,0.535-0.093,0.717c-0.062,0.182-0.155,0.322-0.278,0.422c-0.123,0.099-0.279,0.149-0.467,0.149
			c-0.248,0-0.442-0.087-0.584-0.262c-0.17-0.21-0.254-0.552-0.254-1.026C19.361,22.316,19.393,22.076,19.455,21.894z"/>
		<path fill="#201600" d="M24.913,21.582c-0.145,0-0.261,0.06-0.347,0.181c-0.109,0.154-0.163,0.438-0.163,0.852
			c0,0.414,0.049,0.69,0.148,0.827c0.099,0.137,0.221,0.206,0.366,0.206c0.145,0,0.267-0.069,0.366-0.207
			c0.099-0.138,0.148-0.413,0.148-0.826c0-0.415-0.049-0.691-0.148-0.828C25.183,21.65,25.06,21.582,24.913,21.582z"/>
		<path fill="#201600" d="M26.751,21.666c0-0.994-0.821-1.8-1.834-1.8c-1.013,0-1.834,0.806-1.834,1.8v1.93
			c0,0.994,0.821,1.8,1.834,1.8c1.013,0,1.834-0.806,1.834-1.8V21.666z M25.662,23.331c-0.062,0.182-0.155,0.322-0.278,0.422
			c-0.123,0.099-0.279,0.149-0.467,0.149c-0.248,0-0.442-0.087-0.584-0.262c-0.17-0.21-0.254-0.552-0.254-1.026
			c0-0.298,0.031-0.538,0.094-0.72c0.062-0.182,0.155-0.322,0.279-0.421c0.123-0.099,0.279-0.148,0.466-0.148
			c0.138,0,0.259,0.027,0.363,0.082c0.104,0.054,0.19,0.133,0.258,0.236c0.068,0.103,0.121,0.228,0.159,0.375
			c0.039,0.147,0.058,0.346,0.058,0.596C25.755,22.91,25.723,23.149,25.662,23.331z"/>
		<path fill="#201600" d="M29.634,23.647c0.145,0,0.267-0.069,0.366-0.207c0.099-0.138,0.148-0.413,0.148-0.826
			c0-0.415-0.049-0.691-0.148-0.828c-0.099-0.137-0.222-0.205-0.369-0.205c-0.145,0-0.261,0.06-0.347,0.181
			c-0.109,0.154-0.163,0.438-0.163,0.852c0,0.414,0.049,0.69,0.148,0.827C29.367,23.578,29.489,23.647,29.634,23.647z"/>
		<path fill="#201600" d="M29.628,25.396c1.013,0,1.834-0.806,1.834-1.8v-1.93c0-0.994-0.821-1.8-1.834-1.8
			c-1.013,0-1.834,0.806-1.834,1.8v1.93C27.794,24.59,28.615,25.396,29.628,25.396z M28.889,21.894
			c0.062-0.182,0.155-0.322,0.279-0.421c0.123-0.099,0.279-0.148,0.466-0.148c0.138,0,0.259,0.027,0.363,0.082
			c0.104,0.054,0.19,0.133,0.258,0.236c0.068,0.103,0.121,0.228,0.159,0.375c0.039,0.147,0.058,0.346,0.058,0.596
			c0,0.296-0.031,0.535-0.093,0.717c-0.062,0.182-0.155,0.322-0.278,0.422c-0.123,0.099-0.279,0.149-0.467,0.149
			c-0.248,0-0.442-0.087-0.584-0.262c-0.17-0.21-0.254-0.552-0.254-1.026C28.795,22.316,28.827,22.076,28.889,21.894z"/>
		<path fill="#201600" d="M34.35,23.647c0.145,0,0.267-0.069,0.365-0.207c0.099-0.138,0.148-0.413,0.148-0.826
			c0-0.415-0.049-0.691-0.148-0.828c-0.099-0.137-0.222-0.205-0.369-0.205c-0.145,0-0.261,0.06-0.347,0.181
			c-0.109,0.154-0.163,0.438-0.163,0.852c0,0.414,0.049,0.69,0.148,0.827C34.084,23.578,34.206,23.647,34.35,23.647z"/>
		<path fill="#201600" d="M34.34,25.396c1.013,0,1.834-0.806,1.834-1.8v-1.93c0-0.994-0.821-1.8-1.834-1.8
			c-1.013,0-1.834,0.806-1.834,1.8v1.93C32.506,24.59,33.327,25.396,34.34,25.396z M33.606,21.894
			c0.062-0.182,0.155-0.322,0.279-0.421c0.123-0.099,0.279-0.148,0.466-0.148c0.138,0,0.259,0.027,0.363,0.082
			c0.104,0.054,0.19,0.133,0.258,0.236c0.068,0.103,0.121,0.228,0.159,0.375c0.039,0.147,0.058,0.346,0.058,0.596
			c0,0.296-0.031,0.535-0.093,0.717c-0.062,0.182-0.155,0.322-0.278,0.422c-0.123,0.099-0.279,0.149-0.467,0.149
			c-0.248,0-0.442-0.087-0.584-0.262c-0.17-0.21-0.254-0.552-0.254-1.026C33.512,22.316,33.544,22.076,33.606,21.894z"/>
		<path fill="#201600" d="M39.064,21.582c-0.145,0-0.261,0.06-0.347,0.181c-0.109,0.154-0.163,0.438-0.163,0.852
			c0,0.414,0.049,0.69,0.148,0.827c0.099,0.137,0.221,0.206,0.366,0.206c0.145,0,0.267-0.069,0.366-0.207
			c0.099-0.138,0.148-0.413,0.148-0.826c0-0.415-0.049-0.691-0.148-0.828C39.334,21.65,39.211,21.582,39.064,21.582z"/>
		<path fill="#201600" d="M40.886,23.596v-1.93c0-0.994-0.821-1.8-1.834-1.8c-1.013,0-1.834,0.806-1.834,1.8v1.93
			c0,0.994,0.821,1.8,1.834,1.8C40.064,25.396,40.886,24.59,40.886,23.596z M39.813,23.331c-0.062,0.182-0.155,0.322-0.278,0.422
			c-0.123,0.099-0.279,0.149-0.467,0.149c-0.248,0-0.442-0.087-0.584-0.262c-0.17-0.21-0.254-0.552-0.254-1.026
			c0-0.298,0.031-0.538,0.094-0.72c0.062-0.182,0.155-0.322,0.279-0.421c0.123-0.099,0.279-0.148,0.466-0.148
			c0.138,0,0.259,0.027,0.363,0.082c0.104,0.054,0.19,0.133,0.258,0.236c0.068,0.103,0.121,0.228,0.159,0.375
			c0.039,0.147,0.058,0.346,0.058,0.596C39.906,22.91,39.875,23.149,39.813,23.331z"/>
		<path fill="#201600" d="M43.785,23.647c0.145,0,0.267-0.069,0.366-0.207c0.099-0.138,0.148-0.413,0.148-0.826
			c0-0.415-0.049-0.691-0.148-0.828c-0.099-0.137-0.222-0.205-0.369-0.205c-0.145,0-0.261,0.06-0.347,0.181
			c-0.109,0.154-0.163,0.438-0.163,0.852c0,0.414,0.049,0.69,0.148,0.827C43.518,23.578,43.64,23.647,43.785,23.647z"/>
		<path fill="#201600" d="M43.763,25.396c1.013,0,1.834-0.806,1.834-1.8v-1.93c0-0.994-0.821-1.8-1.834-1.8
			c-1.013,0-1.834,0.806-1.834,1.8v1.93C41.929,24.59,42.75,25.396,43.763,25.396z M43.04,21.894
			c0.062-0.182,0.155-0.322,0.279-0.421c0.123-0.099,0.279-0.148,0.466-0.148c0.138,0,0.259,0.027,0.363,0.082
			c0.104,0.054,0.19,0.133,0.258,0.236c0.068,0.103,0.121,0.228,0.159,0.375c0.039,0.147,0.058,0.346,0.058,0.596
			c0,0.296-0.031,0.535-0.093,0.717c-0.062,0.182-0.155,0.322-0.278,0.422c-0.123,0.099-0.279,0.149-0.467,0.149
			c-0.248,0-0.442-0.087-0.584-0.262c-0.17-0.21-0.254-0.552-0.254-1.026C42.947,22.316,42.978,22.076,43.04,21.894z"/>
		<path fill="#201600" d="M48.136,23.441c0.099,0.137,0.221,0.206,0.366,0.206c0.145,0,0.267-0.069,0.365-0.207
			c0.099-0.138,0.148-0.413,0.148-0.826c0-0.415-0.049-0.691-0.148-0.828c-0.099-0.137-0.222-0.205-0.369-0.205
			c-0.145,0-0.261,0.06-0.347,0.181c-0.109,0.154-0.163,0.438-0.163,0.852C47.988,23.028,48.037,23.304,48.136,23.441z"/>
		<path fill="#201600" d="M46.641,21.666v1.93c0,0.994,0.821,1.8,1.834,1.8c1.013,0,1.834-0.806,1.834-1.8v-1.93
			c0-0.994-0.821-1.8-1.834-1.8C47.462,19.866,46.641,20.672,46.641,21.666z M48.864,21.407c0.104,0.054,0.19,0.133,0.258,0.236
			c0.068,0.103,0.121,0.228,0.159,0.375c0.039,0.147,0.058,0.346,0.058,0.596c0,0.296-0.031,0.535-0.093,0.717
			c-0.062,0.182-0.155,0.322-0.278,0.422c-0.123,0.099-0.279,0.149-0.467,0.149c-0.248,0-0.442-0.087-0.584-0.262
			c-0.17-0.21-0.254-0.552-0.254-1.026c0-0.298,0.031-0.538,0.094-0.72c0.062-0.182,0.155-0.322,0.279-0.421
			c0.123-0.099,0.279-0.148,0.466-0.148C48.639,21.325,48.76,21.352,48.864,21.407z"/>
	</g>
</g>
</svg>
