<?xml version="1.0" encoding="utf-8"?>
<!-- Generator: Adobe Illustrator 17.0.0, SVG Export Plug-In . SVG Version: 6.00 Build 0)  -->
<svg version="1.2" baseProfile="tiny" xmlns="http://www.w3.org/2000/svg" xmlns:xlink="http://www.w3.org/1999/xlink" x="0px"
	 y="0px" width="64px" height="64px" viewBox="0 0 64 64" xml:space="preserve">
<g id="Слой_1">
</g>
<g id="Слой_2">
</g>
<g id="Слой_3">
</g>
<g id="Слой_4">
</g>
<g id="Слой_5">
</g>
<g id="Слой_6">
</g>
<g id="Слой_7">
</g>
<g id="Слой_8">
	<g>
		<path fill="#000301" d="M33.915,31.982h-5.592v-3.68h5.592c0.99,0.021,1.788,0.839,1.788,1.841
			C35.703,31.145,34.905,31.961,33.915,31.982 M33.851,26.831l0.064-0.002h-5.592V23.15h6.342v0.247
			c0,0.406,0.328,0.735,0.731,0.735c0.404,0,0.732-0.33,0.732-0.735l-0.001-1.351c0-0.203-0.164-0.368-0.366-0.368h-8.169
			c-0.419,0-0.728,0.34-0.732,0.738v10.301c0,0.408,0.325,0.737,0.732,0.737h6.259h0.064c1.799-0.021,3.252-1.496,3.252-3.312
			C37.167,28.328,35.65,26.855,33.851,26.831"/>
		<path fill="#000301" d="M44.506,52.472L32,45.231L19.494,52.47V9.942h25.012V52.472z M47.449,7H16.551v49.345
			c0,0.361,0.294,0.655,0.657,0.655c0.115,0,0.222-0.032,0.316-0.085l0.006,0.004L32,48.542l14.466,8.375l0.007-0.004
			C46.568,56.968,46.677,57,46.792,57c0.363,0,0.657-0.294,0.657-0.655V7z"/>
	</g>
</g>
</svg>
