<?xml version="1.0" encoding="utf-8"?>
<!-- Generator: Adobe Illustrator 17.0.0, SVG Export Plug-In . SVG Version: 6.00 Build 0)  -->
<svg version="1.2" baseProfile="tiny" xmlns="http://www.w3.org/2000/svg" xmlns:xlink="http://www.w3.org/1999/xlink" x="0px"
	 y="0px" width="64px" height="64px" viewBox="0 0 64 64" xml:space="preserve">
<g id="Слой_1">
</g>
<g id="Слой_2">
</g>
<g id="Слой_3">
	<g>
		<g id="XMLID_1_">
			<g>
				<polygon points="34.632,52.829 35.122,55.329 28.872,55.329 29.372,52.829 				"/>
				<polygon points="32.002,46.599 34.002,51.169 29.972,51.169 				"/>
				<path d="M44.002,35.979c1.45-0.87,1.97-1.98,2.12-3.16c-0.39-0.05-0.75-0.17-1.07-0.37
					C44.832,33.649,44.472,34.839,44.002,35.979z M48.582,30.079v-6.25c0-0.58-0.5-1-1-1h-1.25c-0.58,0-1,0.5-1,1v5.67v0.58
					c0,0.59,0.5,1,1,1h1.25C48.172,31.079,48.582,30.579,48.582,30.079z M40.232,43.839l0.85-1.17l-0.33-1.5
					c-0.11,0.12-0.23,0.24-0.34,0.35c-1.96,2.01-4.4,3.4-7.14,3.74l2.25,5.05l1.1-1.51l3.46-4.8
					C40.132,43.939,40.182,43.879,40.232,43.839z M53.752,49.919c-5.2-2.73-9.1-4.14-12.49-4.65l-5.03,6.91l0.64,3.15h18.46v-2.75
					C55.332,51.499,54.752,50.499,53.752,49.919z M34.632,52.829h-5.26l-0.5,2.5h6.25L34.632,52.829z M29.972,51.169h4.03l-2-4.57
					L29.972,51.169z M28.482,50.309l2.25-5.05c-2.74-0.34-5.18-1.73-7.14-3.74c-0.11-0.11-0.23-0.23-0.34-0.35l-0.33,1.5l0.91,1.25
					c0.03,0.03,0.06,0.05,0.09,0.08l3.46,4.8L28.482,50.309z M18.582,30.079v-6.25c0-0.58-0.5-1-1-1h-1.25c-0.58,0-1,0.5-1,1v6.25
					c0,0.59,0.5,1,1,1h1.25C18.172,31.079,18.582,30.579,18.582,30.079z M18.832,21.569c1.02-6.35,6.55-11.24,13.17-11.24
					s12.15,4.89,13.17,11.24c0.3-0.16,0.63-0.27,0.98-0.31c-0.37-10.92-9.02-12.59-14.15-12.59c-5.14,0-13.78,1.67-14.15,12.59
					C18.202,21.299,18.532,21.409,18.832,21.569z M32.002,11.999c-6.42,0-11.67,5.25-11.67,11.67v5.83c0,3.64,1.25,6.86,3.12,9.32
					l0.05,0.01c0.08,0.09,0.17,0.17,0.25,0.25c1.14,1.43,2.41,2.55,3.77,3.33c1.34,0.75,2.75,1.19,4.13,1.25
					c0.1-0.05,0.22-0.08,0.35-0.08c0.13,0,0.25,0.03,0.37,0.08c2.25-0.11,4.59-1.22,6.55-3.05c0.47-0.46,0.91-0.97,1.33-1.53
					c0.05-0.05,0.1-0.1,0.15-0.15c-2.05,0.39-4.57,0.57-7.57,0.57c-0.5,0-0.83-0.33-0.83-0.83s0.33-0.84,0.83-0.84
					c4.1,0,6.96-0.34,8.95-0.92c1.17-2.13,1.89-4.65,1.89-7.41v-5.83C43.672,17.249,38.422,11.999,32.002,11.999z M22.792,45.339
					c-3.41,0.42-7.23,1.84-12.54,4.66c-1,0.5-1.58,1.5-1.58,2.58v2.75h18.46l0.63-3.15L22.792,45.339z M16.422,32.829
					c-1.5,0-2.75-1.25-2.75-2.66v-6.25c0-1.45,1.16-2.58,2.51-2.66c0.18-4.82,2.31-14.26,15.82-14.26s15.63,9.44,15.82,14.26
					c1.42,0.08,2.51,1.29,2.51,2.66v6.25c0,1.37-1.18,2.59-2.54,2.66c-0.26,2.63-1.83,4.42-4.94,5.48c-0.25,0.42-0.52,0.83-0.8,1.23
					l0.78,3.13c0.09,0.25,0,0.5-0.16,0.66l-0.36,0.49c3.4,0.57,7.21,2.04,12.19,4.68c1.5,0.83,2.5,2.42,2.5,4.08v3.59
					c0,0.5-0.33,0.83-0.83,0.83h-20h-0.34h-7.66h-0.34h-20c-0.5,0-0.83-0.33-0.83-0.83v-3.59c0-1.75,0.92-3.33,2.5-4.08
					c4.97-2.64,8.79-4.11,12.18-4.68l-0.35-0.49c-0.16-0.25-0.16-0.5-0.16-0.66l0.78-3.13c-1.48-2.09-2.53-4.55-3-7.06
					c-0.38,0.22-0.83,0.35-1.28,0.35H16.422z"/>
			</g>
		</g>
	</g>
</g>
<g id="Слой_4">
</g>
<g id="Слой_5">
</g>
<g id="Слой_6">
</g>
<g id="Слой_7">
</g>
<g id="Слой_8">
</g>
</svg>
