<?xml version="1.0" encoding="utf-8"?>
<!-- Generator: Adobe Illustrator 17.0.0, SVG Export Plug-In . SVG Version: 6.00 Build 0)  -->
<svg version="1.2" baseProfile="tiny" xmlns="http://www.w3.org/2000/svg" xmlns:xlink="http://www.w3.org/1999/xlink" x="0px"
	 y="0px" width="64px" height="64px" viewBox="0 0 64 64" xml:space="preserve">
<g id="Слой_1">
</g>
<g id="Слой_2">
</g>
<g id="Слой_3">
</g>
<g id="Слой_4">
</g>
<g id="Слой_5">
</g>
<g id="Слой_6">
</g>
<g id="Слой_7">
	<path fill="#201600" d="M57,41.523c-0.367,0.818-1.016,1.113-1.964,1.109c-5.81-0.025-11.621-0.013-17.431-0.013
		c-0.29,0-0.58,0-0.919,0c0.113,1.348,0.16,2.657,0.351,3.948c0.127,0.857,0.682,1.536,1.498,1.992
		c0.642,0.359,1.284,0.718,1.921,1.087c0.149,0.086,0.322,0.186,0.397,0.321c0.08,0.145,0.122,0.365,0.059,0.504
		c-0.048,0.107-0.285,0.192-0.439,0.194c-1.4,0.015-2.799,0.011-4.199,0.011c-4.183,0-8.366-0.001-12.548-0.003
		c-0.27,0-0.655,0.065-0.67-0.271c-0.01-0.232,0.188-0.556,0.401-0.696c0.638-0.419,1.334-0.757,1.996-1.144
		c0.978-0.572,1.502-1.403,1.581-2.485c0.083-1.136,0.178-2.271,0.272-3.458c-0.251,0-0.459,0-0.667,0c-5.941,0-11.881,0-17.822,0
		C7.579,42.62,7,42.076,7,40.914c0-8.649-0.001-17.298,0-25.947c0-1.049,0.606-1.632,1.7-1.632
		c15.445-0.001,30.891,0.004,46.336-0.013c0.949-0.001,1.596,0.292,1.963,1.11C57,23.462,57,32.492,57,41.523z M9.363,39.661
		c15.117,0,30.193,0,45.255,0c0-8.062,0-16.09,0-24.108c-15.104,0-30.168,0-45.255,0C9.363,23.597,9.363,31.614,9.363,39.661z"/>
	<path fill="#201600" d="M46.776,34.318c-2.12,1.291-5.697,1.457-8.437-0.395c-2.798-1.892-3.984-5.23-2.934-8.269
		c1.013-2.933,4.018-5.134,7.044-5.12c0,0.194,0,0.388,0,0.583c-0.001,2.165-0.009,4.329,0.009,6.493
		c0.002,0.254,0.095,0.541,0.241,0.756c1.209,1.788,2.44,3.563,3.664,5.342C46.501,33.911,46.638,34.115,46.776,34.318z"/>
	<path fill="#201600" d="M48.036,34.355c-1.365-1.983-2.729-3.965-4.114-5.976c2.136-1.499,4.255-2.987,6.374-4.474
		C52.315,26.549,52.06,31.691,48.036,34.355z"/>
	<path fill="#201600" d="M23.545,25.871c1.541-1.642,3.04-3.238,4.627-4.928c-0.709,0-1.287-0.008-1.865,0.003
		c-0.394,0.008-0.713-0.111-0.714-0.509c-0.001-0.393,0.303-0.523,0.705-0.518c0.992,0.012,1.985,0.002,2.978,0.007
		c0.508,0.003,0.681,0.155,0.686,0.622c0.009,0.961,0.002,1.922,0.006,2.882c0.001,0.342-0.161,0.583-0.528,0.589
		c-0.39,0.006-0.57-0.233-0.565-0.601c0.007-0.502,0.002-1.003,0.002-1.633c-0.208,0.211-0.345,0.344-0.475,0.482
		c-1.377,1.464-2.751,2.931-4.13,4.394c-0.535,0.568-0.679,0.576-1.325,0.092c-1.358-1.018-2.715-2.037-4.091-3.071
		c-1.674,1.476-3.332,2.938-4.99,4.4c-0.142,0.125-0.279,0.257-0.426,0.376c-0.271,0.219-0.566,0.263-0.821,0.002
		c-0.256-0.261-0.186-0.531,0.077-0.764c0.887-0.786,1.774-1.571,2.663-2.355c0.971-0.857,1.944-1.714,2.917-2.57
		c0.442-0.389,0.606-0.397,1.089-0.036C20.747,23.772,22.13,24.81,23.545,25.871z"/>
	<path fill="#201600" d="M29.966,30.69c0,1.295,0.002,2.59-0.001,3.885c-0.001,0.584-0.153,0.723-0.781,0.725
		c-0.585,0.002-1.17,0.002-1.756,0c-0.581-0.002-0.748-0.151-0.75-0.713c-0.006-2.087-0.003-4.174-0.004-6.261
		c0-0.533-0.01-1.067,0.001-1.6c0.01-0.481,0.205-0.657,0.717-0.663c0.601-0.007,1.203-0.002,1.804-0.001
		c0.586,0.002,0.762,0.156,0.764,0.697c0.005,1.31,0.002,2.62,0.002,3.931C29.963,30.69,29.965,30.69,29.966,30.69z"/>
	<path fill="#201600" d="M49.77,23.035c-2.09,1.467-4.127,2.897-6.222,4.369c0-2.525,0-4.98,0-7.489
		C46.093,20.12,48.135,21.145,49.77,23.035z"/>
	<path fill="#201600" d="M20.484,31.484c0,1.051,0.005,2.101-0.002,3.152c-0.003,0.503-0.167,0.655-0.693,0.66
		c-0.65,0.006-1.3-0.005-1.949,0.003c-0.432,0.005-0.639-0.21-0.641-0.585c-0.009-2.162-0.012-4.324-0.003-6.486
		c0.002-0.451,0.207-0.612,0.707-0.616c0.634-0.006,1.267-0.005,1.901,0c0.494,0.004,0.675,0.166,0.678,0.629
		C20.488,29.322,20.483,30.403,20.484,31.484z"/>
	<path fill="#201600" d="M25.243,32.224c0,0.761,0.002,1.522-0.001,2.283c-0.002,0.653-0.154,0.79-0.865,0.791
		c-0.601,0.001-1.202,0-1.802,0c-0.417,0-0.632-0.193-0.632-0.587c0-1.659,0.001-3.317,0.001-4.976c0-0.397,0.215-0.584,0.633-0.583
		c0.666,0.002,1.332-0.007,1.997,0.003c0.477,0.007,0.665,0.188,0.67,0.65c0.009,0.806,0.003,1.613,0.003,2.42
		C25.245,32.224,25.244,32.224,25.243,32.224z"/>
	<path fill="#201600" d="M12.469,32.947c0-0.549,0.009-1.098-0.003-1.647c-0.009-0.426,0.218-0.618,0.651-0.621
		c0.651-0.004,1.302-0.012,1.953,0.002c0.504,0.011,0.692,0.198,0.695,0.688c0.007,1.083,0.005,2.166-0.003,3.249
		c-0.004,0.515-0.187,0.677-0.737,0.68c-0.635,0.003-1.269-0.003-1.904,0.002c-0.446,0.003-0.658-0.197-0.656-0.613
		c0.004-0.58,0.001-1.159,0.001-1.739H12.469z"/>
</g>
<g id="Слой_8">
</g>
</svg>
