<svg width="410" height="410" viewBox="0 0 410 410" fill="none" xmlns="http://www.w3.org/2000/svg">
  <mask id="path-1-inside-1" fill="white">
  <path d="M60.0431 349.957C32.9271 322.841 13.9605 288.663 5.29835 251.306C-3.36378 213.949 -1.37409 174.912 11.0413 138.63C23.4567 102.347 45.8001 70.2746 75.5325 46.0561C105.265 21.8375 141.194 6.44421 179.238 1.62515L192.119 103.313C173.097 105.722 155.132 113.419 140.266 125.528C125.4 137.637 114.228 153.674 108.021 171.815C101.813 189.956 100.818 209.475 105.149 228.153C109.48 246.831 118.964 263.92 132.522 277.478L60.0431 349.957Z"/>
  </mask>
  <path d="M60.0431 349.957C32.9271 322.841 13.9605 288.663 5.29835 251.306C-3.36378 213.949 -1.37409 174.912 11.0413 138.63C23.4567 102.347 45.8001 70.2746 75.5325 46.0561C105.265 21.8375 141.194 6.44421 179.238 1.62515L192.119 103.313C173.097 105.722 155.132 113.419 140.266 125.528C125.4 137.637 114.228 153.674 108.021 171.815C101.813 189.956 100.818 209.475 105.149 228.153C109.48 246.831 118.964 263.92 132.522 277.478L60.0431 349.957Z" stroke="black" stroke-width="48" mask="url(#path-1-inside-1)"/>
  <mask id="path-2-inside-2" fill="white">
  <path d="M399.077 138.978C412.876 179.538 413.619 223.402 401.203 264.407C388.788 305.412 363.837 341.497 329.857 367.591C295.877 393.685 254.575 408.477 211.755 409.889C168.935 411.3 126.749 399.261 91.1237 375.462L148.062 290.231C165.874 302.13 186.968 308.15 208.378 307.444C229.788 306.738 250.438 299.342 267.428 286.295C284.418 273.248 296.894 255.206 303.102 234.704C309.31 214.201 308.938 192.269 302.039 171.989L399.077 138.978Z"/>
  </mask>
  <path d="M399.077 138.978C412.876 179.538 413.619 223.402 401.203 264.407C388.788 305.412 363.837 341.497 329.857 367.591C295.877 393.685 254.575 408.477 211.755 409.889C168.935 411.3 126.749 399.261 91.1237 375.462L148.062 290.231C165.874 302.13 186.968 308.15 208.378 307.444C229.788 306.738 250.438 299.342 267.428 286.295C284.418 273.248 296.894 255.206 303.102 234.704C309.31 214.201 308.938 192.269 302.039 171.989L399.077 138.978Z" stroke="black" stroke-width="48" mask="url(#path-2-inside-2)"/>
  <mask id="path-3-inside-3" fill="white">
  <path d="M220.263 0.56901C253.528 3.05265 285.684 13.6162 313.942 31.3431C342.199 49.07 365.704 73.4246 382.416 102.294L293.708 153.647C285.352 139.212 273.599 127.035 259.471 118.172C245.342 109.308 229.264 104.026 212.632 102.785L220.263 0.56901Z"/>
  </mask>
  <path d="M220.263 0.56901C253.528 3.05265 285.684 13.6162 313.942 31.3431C342.199 49.07 365.704 73.4246 382.416 102.294L293.708 153.647C285.352 139.212 273.599 127.035 259.471 118.172C245.342 109.308 229.264 104.026 212.632 102.785L220.263 0.56901Z" stroke="black" stroke-width="48" mask="url(#path-3-inside-3)"/>
</svg>
