<?xml version="1.0" encoding="utf-8"?>
<!-- Generator: Adobe Illustrator 17.0.0, SVG Export Plug-In . SVG Version: 6.00 Build 0)  -->
<svg version="1.2" baseProfile="tiny" xmlns="http://www.w3.org/2000/svg" xmlns:xlink="http://www.w3.org/1999/xlink" x="0px"
	 y="0px" width="64px" height="64px" viewBox="0 0 64 64" xml:space="preserve">
<g id="Слой_1">
</g>
<g id="Слой_2">
</g>
<g id="Слой_3">
</g>
<g id="Слой_4">
</g>
<g id="Слой_5">
</g>
<g id="Слой_6">
</g>
<g id="Слой_7">
</g>
<g id="Слой_8">
	<g>
		<path fill="#201600" d="M11,14.059c0.258-0.532,0.458-1.102,0.787-1.586c0.555-0.817,1.396-1.216,2.366-1.339
			c0.242-0.031,0.489-0.037,0.734-0.038c8.463-0.002,16.926-0.003,25.389,0c1.859,0,3.253,0.921,3.652,2.608
			c0.214,0.906,0.127,1.885,0.162,2.831c0.003,0.088-0.084,0.193-0.152,0.269c-1.029,1.156-2.061,2.308-3.094,3.46
			c-0.037,0.041-0.09,0.067-0.213,0.155c0-1.975,0-3.878,0-5.808c-8.734,0-17.404,0-26.115,0c0,11.586,0,23.164,0,34.774
			c8.685,0,17.356,0,26.108,0c0-0.178,0-0.354,0-0.53c0-2.208-0.002-4.415,0.004-6.623c0.001-0.176,0.001-0.403,0.101-0.519
			c1.077-1.232,2.175-2.445,3.327-3.732c0.022,0.195,0.046,0.306,0.046,0.416c0.002,3.588,0.011,7.175-0.002,10.763
			c-0.008,2.253-1.51,3.74-3.77,3.741c-8.509,0.005-17.018,0.004-25.527,0c-1.916-0.001-3.149-0.926-3.705-2.751
			c-0.031-0.102-0.066-0.202-0.099-0.303C11,37.918,11,25.989,11,14.059z"/>
		<path fill="#201600" d="M57,19.303c-0.621,1.338-1.823,2.2-2.717,3.394c-2.246-2.012-4.454-3.99-6.704-6.006
			c0.477-0.542,0.934-1.067,1.398-1.586c0.306-0.342,0.605-0.693,0.938-1.009c0.739-0.701,1.834-0.752,2.595-0.087
			c1.303,1.138,2.592,2.294,3.856,3.476c0.278,0.26,0.427,0.657,0.635,0.99C57,18.751,57,19.027,57,19.303z M50.066,16.547
			c1.371,1.229,2.699,2.418,4.059,3.637c0.4-0.446,0.773-0.861,1.172-1.306c-1.361-1.22-2.696-2.418-4.054-3.636
			C50.839,15.689,50.473,16.095,50.066,16.547z"/>
		<path fill="#201600" d="M44.671,19.913c2.24,2.009,4.447,3.989,6.692,6.003c-4.742,5.287-9.459,10.547-14.2,15.834
			c-2.237-2.007-4.445-3.987-6.694-6.005C35.21,30.459,39.927,25.201,44.671,19.913z M34.546,36.457
			c0.269-0.205,0.482-0.324,0.638-0.494c0.745-0.811,1.473-1.637,2.208-2.457c1.828-2.039,3.658-4.076,5.482-6.12
			c0.387-0.434,0.345-0.699-0.132-1.119c-0.453-0.399-0.717-0.406-1.091,0.01c-2.588,2.878-5.175,5.756-7.745,8.65
			c-0.151,0.17-0.27,0.556-0.18,0.715C33.903,35.948,34.237,36.164,34.546,36.457z M45.981,23.722
			c-0.275-0.259-0.517-0.583-0.84-0.75c-0.161-0.083-0.498,0.078-0.706,0.208c-0.199,0.125-0.329,0.356-0.496,0.534
			c-0.214,0.228-0.377,0.497-0.177,0.778c0.225,0.314,0.472,0.664,0.939,0.631C45.035,25.099,45.878,24.157,45.981,23.722z"/>
		<path fill="#201600" d="M27.544,22.706c-2.758,0-5.516,0.006-8.274-0.003c-1.086-0.003-1.842-0.743-1.833-1.758
			c0.007-0.824,0.562-1.501,1.374-1.662c0.179-0.036,0.364-0.057,0.547-0.057c5.47-0.003,10.94-0.005,16.411,0
			c1.103,0.001,1.875,0.716,1.889,1.714c0.014,1.017-0.767,1.761-1.885,1.764C33.03,22.711,30.287,22.707,27.544,22.706z"/>
		<path fill="#201600" d="M35.209,26.583c-0.996,1.108-1.921,2.148-2.865,3.171c-0.118,0.128-0.332,0.235-0.502,0.236
			c-4.212,0.013-8.425,0.017-12.637,0.005c-1.05-0.003-1.784-0.768-1.77-1.769c0.013-0.945,0.753-1.673,1.761-1.674
			c5.223-0.008,10.447-0.004,15.67-0.003C34.952,26.548,35.038,26.565,35.209,26.583z"/>
		<path fill="#201600" d="M28.728,33.756c-0.453,0.808-0.945,1.505-1.251,2.275c-0.413,1.04-1.095,1.27-2.153,1.222
			c-2.035-0.092-4.077-0.021-6.117-0.031c-0.802-0.004-1.449-0.475-1.691-1.186c-0.227-0.666-0.04-1.437,0.537-1.863
			c0.282-0.208,0.661-0.397,0.998-0.4C22.24,33.744,25.429,33.756,28.728,33.756z"/>
		<path fill="#201600" d="M36.346,42.638c-0.875,0.365-1.678,0.703-2.483,1.034c-1.615,0.663-3.231,1.322-4.847,1.982
			c-0.085,0.035-0.171,0.066-0.257,0.099c-0.4,0.153-0.794,0.159-1.119-0.149c-0.321-0.304-0.353-0.69-0.232-1.105
			c0.325-1.118,0.639-2.239,0.961-3.358c0.397-1.384,0.798-2.766,1.198-4.149c0.024-0.084,0.058-0.165,0.116-0.328
			C31.908,38.658,34.089,40.614,36.346,42.638z M34.173,42.269c-1.326-1.19-2.581-2.316-3.898-3.497
			c-0.303,1.055-0.585,2.02-0.852,2.99c-0.022,0.079,0.032,0.216,0.097,0.276c0.492,0.46,0.992,0.912,1.5,1.353
			c0.062,0.054,0.205,0.072,0.284,0.041C32.227,43.066,33.145,42.688,34.173,42.269z"/>
		<path fill="#201600" d="M25.668,41.101c-0.266,0.915-0.525,1.793-0.776,2.673c-0.213,0.745-0.209,0.747-0.966,0.747
			c-1.563,0-3.127-0.001-4.69-0.001c-0.745,0-1.307-0.32-1.631-0.989c-0.306-0.633-0.227-1.252,0.199-1.816
			c0.328-0.433,0.787-0.653,1.312-0.657c2.115-0.016,4.23-0.008,6.345-0.007C25.505,41.052,25.549,41.072,25.668,41.101z"/>
		<path fill="#201600" d="M45.323,19.191c0.553-0.618,1.073-1.198,1.64-1.831c2.231,2.002,4.444,3.987,6.688,6.001
			c-0.559,0.626-1.083,1.214-1.634,1.831C49.779,23.185,47.571,21.206,45.323,19.191z"/>
	</g>
</g>
</svg>
