<?xml version="1.0" encoding="utf-8"?>
<!-- Generator: Adobe Illustrator 17.0.0, SVG Export Plug-In . SVG Version: 6.00 Build 0)  -->
<svg version="1.2" baseProfile="tiny" xmlns="http://www.w3.org/2000/svg" xmlns:xlink="http://www.w3.org/1999/xlink" x="0px"
	 y="0px" width="64px" height="64px" viewBox="0 0 64 64" xml:space="preserve">
<g id="Слой_1">
</g>
<g id="Слой_2">
</g>
<g id="Слой_3">
	<g>
		<path id="rect34754" d="M21.682,7.532c-0.249,0.007-0.486,0.11-0.663,0.286l-2.934,2.934c-0.386,0.377-0.394,0.997-0.016,1.383
			c0.377,0.386,0.997,0.394,1.383,0.016c0.005-0.005,0.011-0.011,0.016-0.016l1.264-1.264v8.396h-1.956
			c-0.54-0.008-0.984,0.424-0.992,0.964s0.424,0.984,0.964,0.992c0.009,0,0.018,0,0.028,0h2.774c0.105,0.017,0.211,0.017,0.316,0
			h1.8c0.54,0.008,0.984-0.424,0.992-0.964c0.008-0.54-0.424-0.984-0.964-0.992c-0.009,0-0.018,0-0.028,0h-0.978V8.509
			c0-0.54-0.438-0.978-0.979-0.978C21.701,7.532,21.692,7.532,21.682,7.532z M32.467,7.532c-0.249,0.007-0.486,0.11-0.663,0.286
			l-2.934,2.934c-0.39,0.374-0.402,0.993-0.028,1.383c0.374,0.39,0.993,0.402,1.383,0.028c0.01-0.009,0.019-0.019,0.028-0.028
			l1.264-1.264v8.396h-1.956c-0.54-0.008-0.984,0.424-0.992,0.964c-0.008,0.54,0.424,0.984,0.964,0.992c0.009,0,0.018,0,0.028,0
			h2.774c0.105,0.017,0.212,0.017,0.317,0h1.799c0.54,0.008,0.984-0.424,0.992-0.964c0.008-0.54-0.424-0.984-0.964-0.992
			c-0.009,0-0.018,0-0.028,0h-0.978V8.509c0-0.54-0.438-0.978-0.979-0.978C32.486,7.532,32.477,7.532,32.467,7.532z M10.437,7.539
			c-1.879,0-3.423,1.543-3.423,3.423v6.845c0,1.879,1.543,3.423,3.423,3.423s3.423-1.543,3.423-3.423v-6.845
			C13.859,9.082,12.316,7.539,10.437,7.539z M42.792,7.539c-1.879,0-3.423,1.543-3.423,3.423v6.845c0,1.879,1.543,3.423,3.423,3.423
			c1.879,0,3.423-1.543,3.423-3.423v-6.845C46.215,9.082,44.671,7.539,42.792,7.539z M53.577,7.539
			c-1.879,0-3.423,1.543-3.423,3.423v6.845c0,1.879,1.543,3.423,3.423,3.423c1.879,0,3.423-1.543,3.423-3.423v-6.845
			C57,9.082,55.456,7.539,53.577,7.539z M10.437,9.495c0.829,0,1.467,0.637,1.467,1.467v6.845c0,0.829-0.637,1.467-1.467,1.467
			c-0.829,0-1.467-0.637-1.467-1.467v-6.845C8.97,10.132,9.607,9.495,10.437,9.495z M42.792,9.495c0.829,0,1.467,0.637,1.467,1.467
			v6.845c0,0.829-0.637,1.467-1.467,1.467c-0.829,0-1.467-0.637-1.467-1.467v-6.845C41.325,10.132,41.962,9.495,42.792,9.495z
			 M53.577,9.495c0.829,0,1.467,0.637,1.467,1.467v6.845c0,0.829-0.637,1.467-1.467,1.467c-0.829,0-1.467-0.637-1.467-1.467v-6.845
			C52.11,10.132,52.748,9.495,53.577,9.495z M10.897,25.149c-0.249,0.007-0.486,0.11-0.663,0.286l-2.934,2.934
			c-0.382,0.382-0.381,1.002,0.001,1.383c0.382,0.381,1,0.381,1.382,0l1.264-1.264v8.396H7.992C7.452,36.876,7.008,37.308,7,37.848
			s0.424,0.984,0.964,0.992c0.009,0,0.018,0,0.028,0h2.774c0.105,0.017,0.212,0.017,0.317,0h1.799
			c0.54,0.008,0.984-0.424,0.992-0.964c0.008-0.54-0.424-0.984-0.964-0.992c-0.009,0-0.018,0-0.028,0h-0.978V26.126
			c0-0.54-0.438-0.978-0.978-0.978C10.916,25.148,10.907,25.148,10.897,25.149z M32.467,25.149c-0.249,0.007-0.486,0.11-0.663,0.286
			l-2.934,2.934c-0.386,0.377-0.394,0.997-0.016,1.383c0.377,0.386,0.997,0.394,1.383,0.016c0.005-0.005,0.011-0.011,0.016-0.016
			l1.264-1.264v8.396h-1.956c-0.54-0.008-0.984,0.424-0.992,0.964s0.424,0.984,0.964,0.992c0.009,0,0.018,0,0.028,0h2.774
			c0.105,0.017,0.212,0.017,0.317,0h1.799c0.54,0.008,0.984-0.424,0.992-0.964c0.008-0.54-0.424-0.984-0.964-0.992
			c-0.009,0-0.018,0-0.028,0h-0.978V26.126c0-0.54-0.438-0.978-0.978-0.978C32.486,25.148,32.477,25.148,32.467,25.149z
			 M43.252,25.149c-0.249,0.007-0.486,0.11-0.663,0.286l-2.934,2.934c-0.386,0.377-0.394,0.997-0.016,1.383
			c0.377,0.386,0.997,0.394,1.383,0.016c0.005-0.005,0.011-0.011,0.016-0.016l1.264-1.264v8.396h-1.956
			c-0.54-0.008-0.984,0.424-0.992,0.964c-0.008,0.54,0.424,0.984,0.964,0.992c0.009,0,0.018,0,0.028,0h2.774
			c0.105,0.017,0.212,0.017,0.317,0h1.799c0.54,0.008,0.984-0.424,0.992-0.964c0.008-0.54-0.424-0.984-0.964-0.992
			c-0.009,0-0.018,0-0.028,0h-0.978V26.126c0-0.54-0.438-0.978-0.978-0.978C43.271,25.148,43.262,25.148,43.252,25.149z
			 M21.222,25.155c-1.879,0-3.423,1.543-3.423,3.423v6.845c0,1.879,1.543,3.423,3.423,3.423s3.423-1.543,3.423-3.423v-6.845
			C24.645,26.699,23.101,25.155,21.222,25.155z M53.577,25.155c-1.879,0-3.423,1.543-3.423,3.423v6.845
			c0,1.879,1.543,3.423,3.423,3.423c1.879,0,3.423-1.543,3.423-3.423v-6.845C57,26.699,55.456,25.155,53.577,25.155z M21.222,27.111
			c0.829,0,1.467,0.637,1.467,1.467v6.845c0,0.829-0.637,1.467-1.467,1.467s-1.467-0.637-1.467-1.467v-6.845
			C19.755,27.748,20.392,27.111,21.222,27.111z M53.577,27.111c0.829,0,1.467,0.637,1.467,1.467v6.845
			c0,0.829-0.637,1.467-1.467,1.467c-0.829,0-1.467-0.637-1.467-1.467v-6.845C52.11,27.748,52.748,27.111,53.577,27.111z
			 M10.897,42.765c-0.249,0.007-0.486,0.11-0.663,0.286l-2.934,2.934c-0.382,0.382-0.382,1.001,0,1.383
			c0.382,0.382,1.001,0.382,1.383,0l1.264-1.264v8.396H7.992C7.452,54.492,7.008,54.924,7,55.464s0.424,0.984,0.964,0.992
			c0.009,0,0.018,0,0.028,0h2.774c0.105,0.017,0.212,0.017,0.317,0h1.799c0.54,0.008,0.984-0.424,0.992-0.964
			c0.008-0.54-0.424-0.984-0.964-0.992c-0.009,0-0.018,0-0.028,0h-0.978V43.742c0-0.54-0.438-0.978-0.979-0.978
			C10.916,42.765,10.907,42.765,10.897,42.765z M21.682,42.765c-0.249,0.007-0.486,0.11-0.663,0.286l-2.934,2.934
			c-0.382,0.382-0.382,1.001,0,1.383c0.382,0.382,1.001,0.382,1.383,0l1.264-1.264v8.396h-1.956
			c-0.54-0.008-0.984,0.424-0.992,0.964s0.424,0.984,0.964,0.992c0.009,0,0.018,0,0.028,0h2.774c0.105,0.017,0.211,0.017,0.316,0
			h1.8c0.54,0.008,0.984-0.424,0.992-0.964c0.008-0.54-0.424-0.984-0.964-0.992c-0.009,0-0.018,0-0.028,0h-0.978V43.742
			c0-0.54-0.438-0.978-0.979-0.978C21.701,42.765,21.692,42.765,21.682,42.765z M32.467,42.765c-0.249,0.007-0.486,0.11-0.663,0.286
			l-2.934,2.934c-0.386,0.377-0.394,0.997-0.016,1.383c0.377,0.386,0.997,0.394,1.383,0.016c0.005-0.005,0.011-0.011,0.016-0.016
			l1.264-1.264v8.396h-1.956c-0.54-0.008-0.984,0.424-0.992,0.964s0.424,0.984,0.964,0.992c0.009,0,0.018,0,0.028,0h2.774
			c0.105,0.017,0.212,0.017,0.317,0h1.799c0.54,0.008,0.984-0.424,0.992-0.964c0.008-0.54-0.424-0.984-0.964-0.992
			c-0.009,0-0.018,0-0.028,0h-0.978V43.742c0-0.54-0.438-0.978-0.979-0.978C32.486,42.765,32.477,42.765,32.467,42.765z
			 M43.252,42.765c-0.249,0.007-0.486,0.11-0.663,0.286l-2.934,2.934c-0.386,0.377-0.394,0.997-0.016,1.383
			c0.377,0.386,0.997,0.394,1.383,0.016c0.005-0.005,0.011-0.011,0.016-0.016l1.264-1.264v8.396h-1.956
			c-0.54-0.008-0.984,0.424-0.992,0.964c-0.008,0.54,0.424,0.984,0.964,0.992c0.009,0,0.018,0,0.028,0h2.774
			c0.105,0.017,0.212,0.017,0.317,0h1.799c0.54,0.008,0.984-0.424,0.992-0.964c0.008-0.54-0.424-0.984-0.964-0.992
			c-0.009,0-0.018,0-0.028,0h-0.978V43.742c0-0.54-0.438-0.978-0.979-0.978C43.271,42.765,43.262,42.765,43.252,42.765z
			 M53.577,42.772c-1.879,0-3.423,1.543-3.423,3.423v6.845c0,1.879,1.543,3.423,3.423,3.423c1.879,0,3.423-1.543,3.423-3.423v-6.845
			C57,44.315,55.456,42.772,53.577,42.772z M53.577,44.727c0.829,0,1.467,0.637,1.467,1.467v6.845c0,0.829-0.637,1.467-1.467,1.467
			c-0.829,0-1.467-0.637-1.467-1.467v-6.845C52.11,45.365,52.748,44.727,53.577,44.727z"/>
	</g>
</g>
<g id="Слой_4">
</g>
<g id="Слой_5">
</g>
<g id="Слой_6">
</g>
<g id="Слой_7">
</g>
<g id="Слой_8">
</g>
</svg>
