<?xml version="1.0" encoding="utf-8"?>
<!-- Generator: Adobe Illustrator 17.0.0, SVG Export Plug-In . SVG Version: 6.00 Build 0)  -->
<svg version="1.2" baseProfile="tiny" xmlns="http://www.w3.org/2000/svg" xmlns:xlink="http://www.w3.org/1999/xlink" x="0px"
	 y="0px" width="64px" height="64px" viewBox="0 0 64 64" xml:space="preserve">
<g id="Слой_1">
</g>
<g id="Слой_2">
</g>
<g id="Слой_3">
	<g>
		<g>
			<g>
				<path d="M52.009,30.617c0-2.512-1.894-4.589-4.329-4.881V13.128c0-0.772-0.501-1.426-1.246-1.627
					c-0.745-0.201-1.507,0.113-1.895,0.78c-2.663,4.582-6.858,7.714-12.468,9.309c-4.242,1.206-7.743,1.031-7.776,1.029
					c-0.051-0.003-0.102,0-0.153,0.005h-8.97C10.666,22.625,7,26.291,7,30.797c0,4.244,3.253,7.742,7.396,8.134l2.705,11.125
					c0.358,1.473,1.667,2.502,3.183,2.502h1.878c1.012,0,1.95-0.456,2.576-1.252c0.625-0.795,0.847-1.815,0.608-2.798l-2.32-9.539
					h1.115c0.051,0.005,0.102,0.008,0.154,0.005c0.035-0.002,3.535-0.177,7.777,1.029c5.61,1.595,9.805,4.727,12.468,9.309
					c0.31,0.533,0.857,0.84,1.445,0.84c0.148,0,0.299-0.02,0.45-0.06c0.745-0.201,1.246-0.854,1.246-1.626V35.857
					c2.435-0.292,4.329-2.368,4.329-4.88L52.009,30.617L52.009,30.617z M23.139,47.701l0.308,1.269
					c0.097,0.397,0.007,0.809-0.245,1.13c-0.252,0.321-0.631,0.505-1.04,0.505h-1.878c-0.612,0-1.141-0.415-1.285-1.01
					l-2.584-10.626h4.6l0.69,2.836h-0.467c-0.539,0-0.977,0.437-0.977,0.977s0.437,0.977,0.977,0.977h0.942l0.484,1.989h-0.306
					c-0.539,0-0.977,0.437-0.977,0.977s0.437,0.977,0.977,0.977H23.139z M23.263,32.872h-6.069c-0.539,0-0.977,0.437-0.977,0.977
					s0.437,0.977,0.977,0.977h6.069v2.191h-1.427c-0.018-0.001-0.036-0.002-0.054-0.002h-6.61c-0.009,0-0.018,0.001-0.028,0.002
					C11.728,37,8.953,34.217,8.953,30.797c0-3.429,2.79-6.219,6.219-6.219h8.091L23.263,32.872L23.263,32.872z M45.727,26.677v8.24
					v12.595c-2.927-4.551-7.466-7.794-13.188-9.406c-3.168-0.892-5.904-1.071-7.323-1.094v-3.163v-9.266
					c1.42-0.023,4.156-0.201,7.323-1.094c5.721-1.612,10.261-4.854,13.188-9.406V26.677z M50.056,30.976
					c0,1.433-1.022,2.632-2.376,2.905v-6.169c1.354,0.273,2.376,1.472,2.376,2.905V30.976z"/>
				<path d="M52.302,25.099c0.235,0,0.47-0.084,0.657-0.254l2.817-2.565c0.399-0.363,0.428-0.981,0.064-1.38
					c-0.363-0.399-0.981-0.428-1.38-0.064l-2.817,2.565c-0.399,0.363-0.428,0.981-0.064,1.38
					C51.772,24.992,52.036,25.099,52.302,25.099z"/>
				<path d="M52.959,36.749c-0.399-0.363-1.016-0.334-1.38,0.064c-0.363,0.399-0.334,1.016,0.064,1.38l2.817,2.565
					c0.187,0.171,0.423,0.255,0.657,0.255c0.265,0,0.53-0.107,0.722-0.319c0.363-0.399,0.334-1.016-0.064-1.38L52.959,36.749z"/>
				<path d="M56.023,29.82h-2.163c-0.539,0-0.977,0.437-0.977,0.977s0.437,0.977,0.977,0.977h2.163c0.539,0,0.977-0.437,0.977-0.977
					S56.563,29.82,56.023,29.82z"/>
				<path d="M14.072,33.475c-0.024-0.06-0.055-0.116-0.09-0.169c-0.036-0.054-0.076-0.104-0.121-0.148
					c-0.046-0.045-0.096-0.086-0.149-0.121c-0.053-0.035-0.109-0.065-0.168-0.09c-0.06-0.024-0.121-0.043-0.183-0.056
					c-0.126-0.025-0.256-0.025-0.382,0c-0.062,0.013-0.124,0.031-0.183,0.056c-0.059,0.024-0.116,0.055-0.169,0.09
					c-0.054,0.035-0.104,0.076-0.148,0.121c-0.045,0.045-0.086,0.095-0.121,0.148c-0.035,0.053-0.065,0.109-0.09,0.169
					c-0.024,0.059-0.043,0.12-0.056,0.183c-0.013,0.062-0.02,0.127-0.02,0.19c0,0.063,0.007,0.128,0.02,0.191
					c0.013,0.062,0.031,0.123,0.056,0.183c0.024,0.059,0.055,0.115,0.09,0.168c0.035,0.054,0.076,0.104,0.121,0.148
					c0.045,0.045,0.095,0.086,0.148,0.122c0.053,0.035,0.11,0.065,0.169,0.09c0.059,0.024,0.12,0.043,0.183,0.056
					c0.063,0.013,0.127,0.019,0.19,0.019c0.064,0,0.128-0.006,0.191-0.019c0.062-0.013,0.123-0.031,0.183-0.056
					c0.059-0.024,0.115-0.055,0.168-0.09c0.054-0.036,0.104-0.077,0.149-0.122c0.045-0.045,0.085-0.095,0.121-0.148
					c0.035-0.053,0.065-0.109,0.09-0.168c0.024-0.06,0.043-0.121,0.056-0.183c0.013-0.063,0.019-0.128,0.019-0.191
					s-0.006-0.128-0.019-0.19C14.115,33.595,14.097,33.534,14.072,33.475z"/>
			</g>
		</g>
	</g>
</g>
<g id="Слой_4">
</g>
<g id="Слой_5">
</g>
<g id="Слой_6">
</g>
<g id="Слой_7">
</g>
<g id="Слой_8">
</g>
</svg>
