<?xml version="1.0" encoding="utf-8"?>
<!-- Generator: Adobe Illustrator 17.0.0, SVG Export Plug-In . SVG Version: 6.00 Build 0)  -->
<svg version="1.2" baseProfile="tiny" id="Слой_1"
	 xmlns="http://www.w3.org/2000/svg" xmlns:xlink="http://www.w3.org/1999/xlink" x="0px" y="0px" width="64px" height="64px"
	 viewBox="0 0 64 64" xml:space="preserve">
<g>
	<path fill="#201600" d="M16.619,25.704c2.867,0,5.734-0.01,8.601,0.011c0.418,0.003,0.606-0.119,0.735-0.533
		c1.74-5.603,3.496-11.201,5.255-16.798c0.073-0.231,0.166-0.487,0.327-0.651c0.391-0.398,0.997-0.16,1.197,0.463
		c0.554,1.727,1.097,3.457,1.639,5.187c1.233,3.936,2.467,7.871,3.686,11.812c0.119,0.384,0.285,0.521,0.691,0.519
		c5.664-0.025,11.328-0.031,16.993-0.038c0.477-0.001,1.029-0.113,1.219,0.535c0.18,0.614-0.317,0.844-0.688,1.12
		c-4.572,3.403-9.143,6.808-13.728,10.193c-0.379,0.28-0.436,0.511-0.292,0.957c1.8,5.583,3.576,11.174,5.362,16.761
		c0.127,0.398,0.196,0.783-0.18,1.066c-0.388,0.291-0.736,0.131-1.088-0.134c-4.556-3.426-9.115-6.848-13.678-10.264
		c-0.799-0.598-0.558-0.576-1.306-0.016c-4.507,3.374-9.009,6.756-13.512,10.134c-0.112,0.084-0.216,0.222-0.338,0.242
		c-0.302,0.05-0.657,0.15-0.91,0.038c-0.353-0.157-0.373-0.541-0.248-0.93c0.896-2.793,1.78-5.59,2.67-8.384
		c0.912-2.863,1.818-5.727,2.75-8.583c0.135-0.414,0.057-0.616-0.284-0.869c-4.654-3.439-9.296-6.895-13.934-10.356
		c-0.214-0.159-0.432-0.387-0.521-0.631c-0.165-0.458,0.245-0.876,0.825-0.878c1.338-0.004,2.676,0.005,4.014,0.006
		c1.581,0.001,3.162,0,4.743,0C16.619,25.69,16.619,25.697,16.619,25.704z"/>
</g>
</svg>
