<?xml version="1.0" encoding="utf-8"?>
<!-- Generator: Adobe Illustrator 17.0.0, SVG Export Plug-In . SVG Version: 6.00 Build 0)  -->
<svg version="1.2" baseProfile="tiny" xmlns="http://www.w3.org/2000/svg" xmlns:xlink="http://www.w3.org/1999/xlink" x="0px"
	 y="0px" width="64px" height="64px" viewBox="0 0 64 64" xml:space="preserve">
<g id="Слой_1">
</g>
<g id="Слой_2">
</g>
<g id="Слой_3">
</g>
<g id="Слой_4">
	<g>
		<path fill="#201600" d="M53.667,55.103c0-0.277,0-0.713,0-1.149c0-9.554,0-19.108-0.001-28.662c0-1.536-0.089-1.621-1.655-1.623
			c-1.666-0.002-3.333-0.002-4.999,0c-1.569,0.001-1.63,0.066-1.63,1.62c0,9.628-0.002,19.256-0.003,28.884c0,0.359,0,0.717,0,1.213
			c-0.82,0-1.519-0.061-2.204,0.015c-0.975,0.107-1.26-0.23-1.249-1.224c0.053-4.702,0.003-9.406,0.041-14.108
			c0.008-0.994-0.283-1.405-1.328-1.367c-1.812,0.065-3.628,0.013-5.443,0.02c-1.457,0.005-1.527,0.076-1.528,1.496
			c-0.002,4.629-0.001,9.258-0.001,13.887c0,0.393,0,0.787,0,1.193c-1.187,0-2.234,0-3.333,0c0-0.495,0-0.9,0-1.306
			c0-6.295-0.015-12.591,0.015-18.886c0.005-1.039-0.333-1.485-1.412-1.451c-1.776,0.056-3.555,0.014-5.332,0.016
			c-1.485,0.002-1.551,0.061-1.552,1.583c-0.004,6.221-0.001,12.442-0.001,18.663c0,0.463,0,0.925,0,1.376c-1.244,0-2.295,0-3.435,0
			c0-2.976-0.019-5.859,0.012-8.741c0.009-0.861-0.309-1.194-1.173-1.176c-1.851,0.038-3.703,0.007-5.554,0.012
			c-1.51,0.005-1.565,0.064-1.566,1.569c-0.001,2.768,0,5.537,0,8.426c-0.65,0-1.205-0.066-1.737,0.018
			C8.052,55.486,7.531,55.72,7,55.89c0,0.37,0,0.739,0,1.109C23.667,57,40.333,57,57,56.999c0-0.37,0-0.74,0-1.109
			C55.934,55.638,54.868,55.387,53.667,55.103z M16.929,55.304c-1.598,0-3.202,0-4.893,0c0-2.733,0-5.444,0-8.267
			c1.659,0,3.24,0,4.893,0C16.929,49.789,16.929,52.506,16.929,55.304z M28.714,55.332c-1.746,0-3.323,0-4.974,0
			c0-6.653,0-13.263,0-20.037c1.481,0,2.985-0.035,4.482,0.046c0.183,0.01,0.472,0.647,0.474,0.995
			c0.029,5.184,0.019,10.368,0.018,15.552C28.713,52.993,28.714,54.098,28.714,55.332z M40.28,55.313c-1.654,0-3.257,0-4.929,0
			c0-5.004,0-9.937,0-14.924c1.663,0,3.269,0,4.929,0C40.28,45.379,40.28,50.315,40.28,55.313z M51.992,55.305
			c-1.663,0-3.267,0-4.932,0c0-9.982,0-19.928,0-29.948c1.63,0,3.235,0,4.932,0C51.992,35.401,51.992,45.314,51.992,55.305z"/>
		<path fill="#201600" d="M15.163,34.089c1.376-0.742,2.02-2.245,1.723-3.738c-0.072-0.362,0.106-0.935,0.377-1.179
			c2.147-1.93,4.337-3.814,6.541-5.68c0.219-0.185,0.701-0.303,0.933-0.19c1.394,0.68,2.555,0.327,3.689-0.593
			c0.237-0.193,0.743-0.249,1.042-0.139c1.735,0.635,3.459,1.305,5.15,2.047c0.339,0.149,0.686,0.632,0.744,1.005
			c0.223,1.438,1.029,2.399,2.333,2.847c1.301,0.447,2.489,0.057,3.412-0.987c0.924-1.045,1.066-2.212,0.566-3.514
			c-0.115-0.3-0.094-0.813,0.093-1.042c2.483-3.039,4.997-6.052,7.539-9.042c0.202-0.238,0.693-0.405,1.002-0.348
			c1.772,0.323,3.42-0.541,3.986-2.172c0.537-1.547-0.166-3.154-1.747-3.998c-0.222-0.118-0.439-0.244-0.659-0.366
			c-0.444,0-0.889,0-1.333,0c-2.519,1.144-2.958,2.146-2.244,4.988c0.056,0.221-0.08,0.563-0.239,0.755
			c-2.642,3.194-5.302,6.372-7.963,9.56c-1.309-0.418-2.549-0.414-3.552,0.572c-0.467,0.459-0.834,0.41-1.358,0.191
			c-1.568-0.655-3.149-1.281-4.739-1.882c-0.632-0.238-0.981-0.498-1.049-1.299c-0.149-1.753-2.136-3.179-3.741-2.853
			c-1.895,0.385-3.16,2.236-2.676,4.052c0.163,0.61,0.011,0.927-0.428,1.301c-2.144,1.823-4.279,3.656-6.38,5.528
			c-0.464,0.413-0.801,0.435-1.358,0.201c-1.453-0.609-2.942-0.086-3.881,1.259c-0.904,1.295-0.801,2.724,0.284,3.966
			C12.237,34.491,13.848,34.798,15.163,34.089z M51.21,8.641c0.996,0.034,1.632,0.704,1.624,1.711
			c-0.008,0.983-0.693,1.679-1.659,1.685c-0.913,0.005-1.687-0.755-1.702-1.671C49.458,9.347,50.204,8.606,51.21,8.641z
			 M38.597,23.669c1.044-0.032,1.749,0.652,1.735,1.684c-0.014,1.017-0.638,1.637-1.657,1.647c-1.013,0.01-1.673-0.629-1.674-1.621
			C37,24.336,37.593,23.7,38.597,23.669z M26.169,18.633c0.999,0.001,1.756,0.796,1.694,1.778c-0.061,0.969-0.798,1.655-1.744,1.624
			c-0.938-0.031-1.631-0.773-1.62-1.733C24.51,19.312,25.191,18.632,26.169,18.633z M13.624,29.474
			c0.923-0.023,1.703,0.706,1.743,1.628c0.043,1.006-0.688,1.743-1.72,1.733c-1.001-0.01-1.664-0.667-1.675-1.661
			C11.961,30.209,12.652,29.498,13.624,29.474z"/>
	</g>
</g>
<g id="Слой_5">
</g>
<g id="Слой_6">
</g>
<g id="Слой_7">
</g>
<g id="Слой_8">
</g>
</svg>
