<?xml version="1.0" encoding="utf-8"?>
<!-- Generator: Adobe Illustrator 17.0.0, SVG Export Plug-In . SVG Version: 6.00 Build 0)  -->
<!DOCTYPE svg PUBLIC "-//W3C//DTD SVG 1.1//EN" "http://www.w3.org/Graphics/SVG/1.1/DTD/svg11.dtd">
<svg version="1.1" id="Слой_1" xmlns="http://www.w3.org/2000/svg" xmlns:xlink="http://www.w3.org/1999/xlink" x="0px" y="0px"
	 width="64px" height="64px" viewBox="0 0 64 64" enable-background="new 0 0 64 64" xml:space="preserve">
<g>
	<g>
		<path d="M12.006,19.26c-0.648,0-0.97-0.007-1.291,0.002c-0.269,0.008-0.537,0.035-0.945,0.063c0,9.459,0,18.897,0,28.526
			c0.642,0.035,1.318,0.1,1.994,0.102c3.304,0.011,6.608-0.033,9.91,0.041c0.583,0.013,1.155,0.49,1.732,0.753
			c-0.553,0.275-1.103,0.778-1.661,0.788c-3.952,0.069-7.907-0.009-11.859,0.062C8.481,49.622,7.993,49.166,8,47.735
			c0.049-9.423,0.042-18.847,0.006-28.27C8.001,18.157,8.4,17.524,9.775,17.65c0.686,0.063,1.382,0.011,2.044,0.011
			c0.532-3.41,0.532-3.403,4.032-3.18c5.362,0.341,10.673,0.903,15.633,3.223c0.353,0.165,0.939,0.059,1.329-0.116
			c5.659-2.554,11.69-2.973,17.766-3.178c1.079-0.036,1.46,0.482,1.421,1.477c-0.021,0.531-0.004,1.063-0.004,1.637
			c0.406,0.059,0.668,0.136,0.926,0.128c3.559-0.115,3.05,0.129,3.056,3.265c0.016,8.828,0.007,17.655,0.005,26.483
			c-0.001,2.154-0.017,2.17-2.174,2.172c-4.224,0.004-8.449,0.001-12.673,0.001c-0.325,0-0.686,0.084-0.966-0.03
			c-0.39-0.159-0.719-0.468-1.073-0.713c0.376-0.288,0.729-0.775,1.133-0.823c1.015-0.121,2.053-0.046,3.082-0.046
			c3.618-0.001,7.237,0,10.96,0c0-9.614,0-19.059,0-28.602c-0.691,0-1.318,0-2.163,0c-0.036,0.585-0.105,1.204-0.106,1.824
			c-0.008,7.04-0.005,14.081-0.005,21.121c0,2.768,0,2.779-2.701,2.83c-4.893,0.092-9.787,0.458-14.308,2.412
			c-2.163,0.935-3.819,0.929-5.977-0.002c-4.47-1.93-9.308-2.307-14.147-2.407c-2.859-0.059-2.859-0.07-2.859-3.001
			c0-6.932,0-13.864,0-20.796C12.006,20.704,12.006,20.071,12.006,19.26z M32.808,46.607c5.754-2.525,11.61-2.949,17.462-3.166
			c0-9.266,0-18.284,0-27.409c-5.589,0.184-11.002,0.613-16.157,2.717c-1.018,0.415-1.336,0.988-1.329,2.067
			c0.047,6.82,0.024,13.641,0.024,20.462C32.808,42.949,32.808,44.619,32.808,46.607z M31.192,46.563c0-0.823,0-1.409,0-1.996
			c0-6.764,0-13.527,0-20.291c0-5.469,0.004-5.485-5.417-6.851c-3.933-0.991-7.939-1.326-11.965-1.353
			c-0.086,0.312-0.166,0.465-0.166,0.619c-0.012,8.549-0.001,17.098-0.041,25.647c-0.005,1.128,0.6,1.181,1.434,1.197
			C20.471,43.641,25.802,44.343,31.192,46.563z"/>
		<path fill="#201600" d="M47.429,36.925c-0.744,0.439-1.054,0.746-1.408,0.811c-3.073,0.564-6.15,1.107-9.237,1.589
			c-0.369,0.058-0.8-0.289-1.202-0.448c0.253-0.352,0.456-0.957,0.766-1.018c3.118-0.611,6.25-1.16,9.39-1.647
			C46.127,36.152,46.587,36.554,47.429,36.925z"/>
		<path fill="#201600" d="M45.707,21.398c0.424,0.322,0.805,0.611,1.187,0.901c-0.361,0.301-0.685,0.794-1.089,0.872
			c-2.959,0.574-5.929,1.09-8.908,1.55c-0.406,0.063-0.877-0.292-1.318-0.454c0.32-0.359,0.588-0.957,0.968-1.04
			C39.542,22.571,42.559,22.013,45.707,21.398z"/>
		<path fill="#201600" d="M36.044,29.546c0.066,0.054-0.447-0.301-0.419-0.351c0.231-0.411,0.507-1.011,0.873-1.095
			c2.308-0.527,4.64-0.956,6.972-1.372c0.847-0.151,1.718-0.257,2.573-0.226c0.296,0.011,0.575,0.496,0.862,0.765
			c-0.24,0.248-0.45,0.673-0.723,0.718C42.942,28.517,39.692,28.994,36.044,29.546z"/>
		<path fill="#201600" d="M45.765,31.088c0.383,0.345,0.762,0.687,1.141,1.029c-0.399,0.268-0.766,0.694-1.201,0.778
			c-2.907,0.564-5.824,1.083-8.75,1.542c-0.425,0.067-0.912-0.26-1.371-0.405c0.353-0.381,0.651-1.01,1.068-1.103
			C39.594,32.269,42.56,31.721,45.765,31.088z"/>
		<path fill="#201600" d="M18.297,35.952c3.192,0.633,6.158,1.185,9.099,1.849c0.401,0.09,0.677,0.738,1.01,1.128
			c-0.467,0.128-0.96,0.425-1.396,0.356c-2.872-0.455-5.738-0.962-8.591-1.524c-0.474-0.094-0.878-0.543-1.315-0.828
			C17.502,36.605,17.899,36.278,18.297,35.952z"/>
		<path fill="#201600" d="M18.22,21.401c3.161,0.612,6.232,1.174,9.281,1.837c0.368,0.08,0.618,0.701,0.922,1.071
			c-0.401,0.155-0.83,0.492-1.197,0.435c-3.031-0.474-6.055-0.995-9.066-1.579c-0.389-0.076-0.692-0.594-1.035-0.907
			C17.469,21.988,17.814,21.718,18.22,21.401z"/>
		<path fill="#201600" d="M18.345,26.251c3.132,0.618,6.044,1.156,8.933,1.8c0.44,0.098,0.771,0.687,1.152,1.048
			c-0.488,0.161-1.007,0.521-1.46,0.452c-2.873-0.439-5.737-0.943-8.588-1.503c-0.463-0.091-0.849-0.57-1.27-0.87
			C17.528,26.866,17.943,26.554,18.345,26.251z"/>
		<path fill="#201600" d="M18.41,31.12c3.12,0.616,6.033,1.154,8.922,1.803c0.425,0.095,0.734,0.712,1.096,1.087
			c-0.506,0.14-1.04,0.463-1.512,0.39c-2.82-0.436-5.632-0.931-8.429-1.492c-0.497-0.1-0.911-0.608-1.364-0.927
			C17.56,31.689,17.997,31.396,18.41,31.12z"/>
	</g>
</g>
</svg>
