<?xml version="1.0" encoding="utf-8"?>
<!-- Generator: Adobe Illustrator 17.0.0, SVG Export Plug-In . SVG Version: 6.00 Build 0)  -->
<svg version="1.2" baseProfile="tiny" xmlns="http://www.w3.org/2000/svg" xmlns:xlink="http://www.w3.org/1999/xlink" x="0px"
	 y="0px" width="64px" height="64px" viewBox="0 0 64 64" xml:space="preserve">
<g id="Слой_1">
</g>
<g id="Слой_2">
	<g>
		<g>
			<path fill-rule="evenodd" fill="#201600" d="M49.093,40.463c0.365-0.266,0.585-0.868,0.585-1.402V10.31
				c0-0.536-0.22-1.068-0.585-1.536c-0.366-0.333-0.951-0.532-1.389-0.532H8.816c-0.586,0-1.097,0.2-1.463,0.532
				c-0.365,0.468-0.584,1-0.584,1.536v28.751c0,0.534,0.219,1.136,0.584,1.402C7.72,40.93,8.23,41.13,8.816,41.13h5.994v9.807
				l9.576-9.807h23.318C48.143,41.13,48.728,40.93,49.093,40.463z M24.167,39.528l-0.586,0.2l-7.236,7.471v-7.671H8.816
				c-0.146,0-0.294,0-0.367-0.134c-0.146-0.134-0.146-0.2-0.146-0.333V10.31c0-0.136,0-0.269,0.146-0.335
				C8.523,9.842,8.67,9.842,8.816,9.842h38.888c0.073,0,0.22,0,0.22,0.133c0.073,0.067,0.219,0.2,0.219,0.335v28.751
				c0,0.134-0.146,0.2-0.219,0.333c0,0.134-0.146,0.134-0.22,0.134H24.167z"/>
			<path fill="#201600" d="M14.435,51.858V41.505H8.816c-0.716,0-1.312-0.267-1.727-0.771c-0.48-0.382-0.696-1.108-0.696-1.673
				V10.31c0-0.599,0.229-1.21,0.664-1.766c0.49-0.453,1.099-0.677,1.758-0.677h38.888c0.568,0,1.229,0.253,1.642,0.63
				c0.478,0.604,0.708,1.215,0.708,1.812v28.751c0,0.564-0.216,1.291-0.696,1.673c-0.47,0.568-1.18,0.771-1.653,0.771h-23.16
				L14.435,51.858z M8.816,8.618c-0.473,0-0.902,0.154-1.21,0.435C7.319,9.429,7.144,9.88,7.144,10.31v28.751
				c0,0.448,0.185,0.921,0.43,1.099l0.074,0.072c0.276,0.353,0.659,0.523,1.168,0.523h6.369v9.261l9.043-9.261h23.476
				c0.341,0,0.811-0.162,1.094-0.523l0.075-0.071c0.246-0.18,0.431-0.651,0.431-1.1V10.31c0-0.429-0.175-0.88-0.506-1.305
				c-0.229-0.201-0.717-0.388-1.094-0.388H8.816z M15.969,48.125v-8.222H8.816c-0.157,0-0.471,0-0.659-0.269
				c-0.211-0.21-0.229-0.385-0.229-0.573V10.31c0-0.137,0-0.438,0.263-0.618c0.189-0.225,0.478-0.225,0.625-0.225h38.888
				c0.346,0,0.491,0.163,0.551,0.305c0.116,0.116,0.263,0.298,0.263,0.538v28.751c0,0.23-0.14,0.378-0.215,0.457l-0.019-0.006
				c-0.037,0.151-0.161,0.391-0.58,0.391H24.229l-0.441,0.151L15.969,48.125z M8.748,39.152c0.022,0.001,0.048,0.001,0.068,0.001
				h7.903v7.12l6.739-6.898l0.708-0.222h23.466c0.043-0.064,0.09-0.113,0.126-0.151c0.004-0.004,0.007-0.007,0.009-0.009V10.31
				c-0.004,0.025-0.071-0.034-0.096-0.057l-0.039-0.035L8.816,10.217c-0.021,0-0.049,0-0.072,0.001l-0.062,0.063L8.678,39.061
				L8.748,39.152z"/>
		</g>
		<g>
			<path fill-rule="evenodd" fill="#201600" d="M57.157,26.791c-0.146-0.292-0.292-0.367-0.438-0.587
				c-0.073-0.146-0.219-0.292-0.438-0.365c-0.219-0.146-0.365-0.146-0.584-0.146h-3.583h-0.292v1.755h3.875v18.933h-4.825v4.458
				l-3.948-4.238v-0.074l-0.292-0.146h-0.146H32.304V43.09h-1.535v3.291c0,0.22,0,0.438,0.146,0.73
				c0.074,0.072,0.074,0.365,0.293,0.438v0.146c0.146,0.146,0.365,0.22,0.512,0.366c0.073,0,0.365,0.072,0.584,0.072h13.815
				l6.287,7.018v-7.018h3.291c0.803,0,1.535-0.95,1.535-1.753V27.375C57.231,27.156,57.231,27.01,57.157,26.791z"/>
			<path fill="#201600" d="M52.781,56.132l-6.829-7.623H32.303c-0.16,0-0.353-0.031-0.495-0.056l-0.24-0.03l-0.115-0.096
				c-0.041-0.042-0.111-0.084-0.185-0.128c-0.104-0.062-0.221-0.134-0.326-0.238l-0.11-0.11v-0.104
				c-0.127-0.13-0.181-0.29-0.212-0.384c-0.227-0.454-0.227-0.747-0.227-0.981v-3.666h2.285v3.291l14.12,0.039l0.5,0.249v0.159
				l3.198,3.433v-3.88h4.825V27.824h-3.875v-2.505h4.25c0.225,0,0.457,0,0.75,0.182c0.268,0.103,0.487,0.296,0.607,0.537
				c0.022,0.028,0.07,0.08,0.117,0.132c0.094,0.104,0.21,0.233,0.321,0.455c0.114,0.323,0.114,0.521,0.114,0.751v19.006
				c0,0.964-0.852,2.128-1.91,2.128h-2.916V56.132z M31.88,47.705c0.018,0.003,0.037,0.007,0.057,0.01
				c0.105,0.019,0.248,0.045,0.367,0.045h13.983l5.744,6.412v-6.412h3.666c0.586,0,1.16-0.789,1.16-1.378V27.375
				c0-0.202,0-0.303-0.055-0.463c-0.045-0.084-0.108-0.153-0.187-0.241c-0.07-0.077-0.139-0.154-0.208-0.259
				c-0.042-0.078-0.101-0.169-0.245-0.218l-0.089-0.043c-0.125-0.083-0.178-0.083-0.376-0.083h-3.5v1.005h3.875v19.683h-4.825v5.036
				l-4.761-5.036H31.928v-3.291h-0.785v2.916c0,0.193,0,0.335,0.091,0.531c0.049,0.07,0.074,0.146,0.096,0.211
				c0.01,0.031,0.028,0.084,0.04,0.1l0.257,0.086l-0.039,0.207c0.021,0.014,0.044,0.027,0.067,0.041
				C31.727,47.6,31.804,47.646,31.88,47.705z"/>
		</g>
		<g>
			<path fill-rule="evenodd" fill="#201600" d="M38.933,15.995H17.587c-0.511,0-0.805,0.365-0.805,0.949
				c0,0.511,0.294,0.952,0.805,0.952h21.345c0.438,0,0.804-0.441,0.804-0.952C39.736,16.36,39.371,15.995,38.933,15.995z"/>
			<path fill="#201600" d="M38.933,18.022H17.587c-0.539,0-0.93-0.453-0.93-1.077c0-0.663,0.356-1.075,0.93-1.075h21.346
				c0.538,0,0.929,0.452,0.929,1.075C39.862,17.529,39.436,18.022,38.933,18.022z M17.587,16.12c-0.432,0-0.68,0.301-0.68,0.825
				c0,0.398,0.213,0.827,0.68,0.827h21.346c0.368,0,0.679-0.379,0.679-0.827c0-0.486-0.279-0.825-0.679-0.825H17.587z"/>
		</g>
		<g>
			<path fill-rule="evenodd" fill="#201600" d="M38.933,21.112H17.587c-0.511,0-0.805,0.511-0.805,0.949
				c0,0.438,0.294,0.949,0.805,0.949h21.345c0.438,0,0.804-0.512,0.804-0.949C39.736,21.623,39.371,21.112,38.933,21.112z"/>
			<path fill="#201600" d="M38.933,23.136H17.587c-0.574,0-0.93-0.558-0.93-1.074s0.355-1.074,0.93-1.074h21.346
				c0.523,0,0.929,0.577,0.929,1.074S39.456,23.136,38.933,23.136z M17.587,21.238c-0.42,0-0.68,0.428-0.68,0.824
				s0.26,0.824,0.68,0.824h21.346c0.366,0,0.679-0.453,0.679-0.824s-0.313-0.824-0.679-0.824H17.587z"/>
		</g>
		<g>
			<path fill-rule="evenodd" fill="#201600" d="M38.933,26.302H17.587c-0.511,0-0.805,0.365-0.805,0.877
				c0,0.584,0.294,0.877,0.805,0.877h21.345c0.438,0,0.804-0.293,0.804-0.877C39.736,26.667,39.371,26.302,38.933,26.302z"/>
			<path fill="#201600" d="M38.933,28.18H17.587c-0.591,0-0.93-0.365-0.93-1.001c0-0.6,0.374-1.002,0.93-1.002h21.346
				c0.521,0,0.929,0.44,0.929,1.002C39.862,27.871,39.395,28.18,38.933,28.18z M17.587,26.427c-0.419,0-0.68,0.288-0.68,0.752
				c0,0.498,0.229,0.751,0.68,0.751h21.346c0.328,0,0.679-0.197,0.679-0.751c0-0.429-0.292-0.752-0.679-0.752H17.587z"/>
		</g>
		<g>
			<path fill-rule="evenodd" fill="#201600" d="M38.933,31.302H17.587c-0.511,0-0.805,0.365-0.805,0.877
				c0,0.584,0.294,0.877,0.805,0.877h21.345c0.438,0,0.804-0.293,0.804-0.877C39.736,31.667,39.371,31.302,38.933,31.302z"/>
			<path fill="#201600" d="M38.933,33.18H17.587c-0.591,0-0.93-0.365-0.93-1.001c0-0.6,0.374-1.002,0.93-1.002h21.346
				c0.521,0,0.929,0.44,0.929,1.002C39.862,32.871,39.395,33.18,38.933,33.18z M17.587,31.427c-0.419,0-0.68,0.288-0.68,0.752
				c0,0.498,0.229,0.751,0.68,0.751h21.346c0.328,0,0.679-0.197,0.679-0.751c0-0.429-0.292-0.752-0.679-0.752H17.587z"/>
		</g>
	</g>
</g>
<g id="Слой_3">
</g>
<g id="Слой_4">
</g>
<g id="Слой_5">
</g>
<g id="Слой_6">
</g>
<g id="Слой_7">
</g>
<g id="Слой_8">
</g>
</svg>
