<?xml version="1.0" encoding="utf-8"?>
<!-- Generator: Adobe Illustrator 17.0.0, SVG Export Plug-In . SVG Version: 6.00 Build 0)  -->
<svg version="1.2" baseProfile="tiny" xmlns="http://www.w3.org/2000/svg" xmlns:xlink="http://www.w3.org/1999/xlink" x="0px"
	 y="0px" width="64px" height="64px" viewBox="0 0 64 64" xml:space="preserve">
<g id="Слой_1">
</g>
<g id="Слой_2">
</g>
<g id="Слой_3">
</g>
<g id="Слой_4">
</g>
<g id="Слой_5">
</g>
<g id="Слой_6">
	<g>
		<g>
			<path fill="#201600" d="M32.048,13C21.515,13.015,12.992,21.532,13,32.034C13.008,42.49,21.527,51.001,31.983,51
				C42.556,50.999,51.01,42.553,51,31.999C50.99,21.5,42.496,12.985,32.048,13z M31.691,50.03
				c-9.75-0.08-17.779-8.286-17.711-18.101c0.069-9.983,8.192-18.012,18.169-17.959c9.946,0.053,17.951,8.214,17.88,18.227
				C49.958,42.219,41.839,50.114,31.691,50.03z"/>
			<path fill="#201600" d="M31.983,51.25h-0.002c-10.596,0-19.223-8.62-19.231-19.215c-0.008-10.618,8.648-19.27,19.297-19.285
				c10.591,0,19.193,8.635,19.203,19.249c0.005,5.171-1.988,10.014-5.613,13.635C42.012,49.256,37.163,51.25,31.983,51.25z
				 M32.075,13.25c-10.4,0.015-18.833,8.441-18.825,18.785c0.008,10.32,8.411,18.715,18.731,18.715V51l0.002-0.25
				c5.047,0,9.771-1.942,13.301-5.47c3.53-3.527,5.471-8.243,5.466-13.281C50.74,21.661,42.363,13.25,32.075,13.25z M31.849,50.281
				l-0.161-0.001c-9.972-0.083-18.028-8.316-17.959-18.353c0.069-10.04,8.288-18.208,18.32-18.208l0.1,0
				c4.854,0.026,9.411,1.947,12.83,5.409c3.452,3.495,5.334,8.137,5.299,13.07C50.207,42.339,42.112,50.281,31.849,50.281z
				 M32.05,14.22c-9.759,0-17.753,7.945-17.82,17.711c-0.066,9.596,7.931,17.77,17.463,17.849l0.157,0.001
				c9.984,0,17.859-7.725,17.929-17.585c0.034-4.799-1.796-9.315-5.154-12.715c-3.325-3.367-7.756-5.235-12.477-5.26L32.05,14.22z"
				/>
		</g>
		<path fill="#201600" d="M9.505,36.612c0.98-0.241,1.816-0.446,2.584-0.634c0-2.649,0-5.367,0-7.937
			c-0.717-0.159-1.471-0.325-2.281-0.504C9.708,30.539,9.606,33.605,9.505,36.612z"/>
		<path fill="#201600" d="M51.853,28.021c0,2.637,0,5.381,0,7.938c0.789,0.203,1.62,0.416,2.577,0.661
			c-0.099-3.027-0.2-6.085-0.298-9.069C53.271,27.729,52.516,27.885,51.853,28.021z"/>
		<path fill="#201600" d="M54.981,27.517c0.105,2.999,0.21,5.998,0.314,8.997c0.093,0.007,0.185,0.015,0.278,0.022
			c-0.106-3.011-0.212-6.021-0.317-9.032C55.164,27.509,55.072,27.513,54.981,27.517z"/>
		<path fill="#201600" d="M55.544,27.54c0.106,2.996,0.213,5.992,0.319,8.987c0.093-0.004,0.187-0.009,0.28-0.013
			c-0.111-2.995-0.221-5.991-0.332-8.986C55.723,27.532,55.633,27.536,55.544,27.54z"/>
		<path fill="#201600" d="M7.545,27.507c-0.104,3.015-0.209,6.031-0.313,9.046c0.09-0.01,0.179-0.02,0.269-0.03
			c0.108-3.001,0.217-6.003,0.325-9.004C7.732,27.514,7.639,27.51,7.545,27.507z"/>
		<path fill="#201600" d="M56.116,27.531c0.103,3.002,0.206,6.005,0.31,9.007c0.095-0.004,0.19-0.009,0.285-0.013
			c-0.111-3.001-0.223-6.003-0.334-9.004C56.289,27.524,56.202,27.528,56.116,27.531z"/>
		<path fill="#201600" d="M54.407,27.494c0.112,3.032,0.223,6.063,0.335,9.095c0.087-0.004,0.175-0.008,0.262-0.011
			c-0.107-3.032-0.214-6.065-0.32-9.097C54.592,27.485,54.5,27.49,54.407,27.494z"/>
		<path fill="#201600" d="M8.108,27.482c-0.102,3.027-0.204,6.053-0.306,9.08c0.085,0.003,0.169,0.006,0.254,0.01
			c0.112-3.033,0.225-6.066,0.338-9.099C8.299,27.476,8.203,27.479,8.108,27.482z"/>
		<path fill="#201600" d="M8.377,36.53c0.084,0.002,0.168,0.005,0.253,0.007c0.106-3.011,0.211-6.023,0.317-9.034
			c-0.092,0.003-0.184,0.005-0.276,0.008C8.573,30.518,8.475,33.524,8.377,36.53z"/>
		<path fill="#201600" d="M9.164,27.505c0,2.994,0,5.987,0,8.981c0.014,0.002,0.028,0.004,0.042,0.005
			c0.101-2.987,0.201-5.974,0.302-8.961C9.393,27.522,9.278,27.514,9.164,27.505z"/>
		<path fill="#201600" d="M56.665,27.614c0.093,1.87,0.185,3.741,0.278,5.611c0-1.875,0-3.75,0-5.625
			C56.851,27.605,56.758,27.61,56.665,27.614z"/>
		<path fill="#201600" d="M57,34.371c-0.019-0.382-0.038-0.764-0.057-1.145c0,0.381,0,0.763,0,1.144
			C56.962,34.37,56.981,34.371,57,34.371z"/>
		<path fill="#201600" d="M7,35.14c0.036,0.001,0.073,0.002,0.109,0.002c0-2.515,0-5.029,0-7.544
			C7.073,27.588,7.036,27.578,7,27.567C7,30.092,7,32.616,7,35.14z"/>
		<path fill="#201600" d="M34.222,38.357c-0.809-1.692-1.617-3.385-2.212-4.63c-0.935,1.814-2.101,4.046-3.233,6.295
			c-0.315,0.626-0.602,1.283-0.773,1.958c-0.437,1.725,0.214,3.513,1.504,4.344c1.506,0.97,3.45,0.964,4.874-0.015
			c1.422-0.978,2.078-2.623,1.504-4.398C35.486,40.677,34.786,39.538,34.222,38.357z M30.648,44.458
			c0.041,0.049,0.1,0.105,0.103,0.16c0.02,0.377,0.027,0.754,0.039,1.131c-0.407-0.073-0.917-0.018-1.202-0.241
			c-0.994-0.775-1.274-1.92-0.914-3.027c0.463-1.426,1.187-2.77,1.799-4.149c0.112,0.045,0.224,0.089,0.336,0.134
			c-0.213,0.589-0.405,1.186-0.644,1.765C29.545,41.731,29.563,43.151,30.648,44.458z"/>
		<path fill="#201600" d="M21.068,30.283c-2.216-0.021-4.075,1.832-4.069,4.058c0.006,2.254,1.795,4.017,4.08,4.022
			c2.311,0.004,4.164-1.821,4.143-4.084C25.203,32.088,23.349,30.305,21.068,30.283z M24.549,35.732
			c-0.058,0.113-0.117,0.226-0.175,0.339c-0.679-0.258-1.359-0.516-2.322-0.882c0.416,0.883,0.724,1.537,1.032,2.191
			c-0.11,0.086-0.22,0.173-0.329,0.259c-0.429-0.613-0.859-1.226-1.288-1.84c-0.076,0.01-0.153,0.021-0.229,0.031
			c-0.052,0.387-0.065,0.785-0.168,1.159c-0.09,0.327-0.28,0.627-0.427,0.939c-0.06-0.328-0.162-0.655-0.169-0.984
			c-0.008-0.391,0.067-0.784,0.105-1.175c-0.13-0.083-0.259-0.167-0.389-0.251c-0.304,0.389-0.582,0.802-0.923,1.156
			c-0.164,0.17-0.449,0.227-0.679,0.336c0.092-0.253,0.135-0.541,0.287-0.752c0.271-0.375,0.609-0.704,0.815-1.26
			c-0.733,0.082-1.467,0.165-2.2,0.247c-0.037-0.124-0.074-0.248-0.111-0.372c0.722-0.211,1.444-0.423,2.433-0.712
			c-0.68-0.349-1.162-0.562-1.603-0.838c-0.194-0.122-0.305-0.372-0.454-0.564c0.226,0.007,0.473-0.041,0.675,0.031
			c0.479,0.172,0.938,0.401,1.672,0.726c-0.379-0.938-0.663-1.638-0.946-2.338c0.128-0.05,0.256-0.099,0.384-0.149
			c0.367,0.608,0.734,1.216,1.101,1.824c0.079-0.001,0.158-0.003,0.236-0.004c0.161-0.72,0.321-1.44,0.482-2.16
			c0.132,0.024,0.264,0.047,0.396,0.071c-0.037,0.698-0.074,1.395-0.129,2.434c0.723-0.666,1.252-1.154,1.781-1.641
			c0.1,0.053,0.199,0.105,0.299,0.158c-0.159,0.273-0.293,0.565-0.483,0.816c-0.245,0.322-0.534,0.612-0.805,0.916
			c0.03,0.087,0.06,0.174,0.09,0.261c0.692-0.099,1.383-0.199,2.083-0.3c-0.007,0.327-0.248,0.454-2.072,1.106
			C23.268,34.961,23.909,35.346,24.549,35.732z"/>
		<path fill="#201600" d="M42.402,30.261c-2.172-0.012-4.049,1.804-4.093,3.962c-0.047,2.262,1.689,4.059,3.98,4.119
			c2.3,0.061,4.192-1.736,4.219-4.005C46.533,32.188,44.604,30.273,42.402,30.261z M45.075,33.664
			c0.271,0.015,0.551-0.113,0.953-0.213c0,0.622,0,1.157,0,1.742c-0.506-0.099-0.9-0.176-1.294-0.253
			c-0.03,0.071-0.06,0.142-0.089,0.213c0.366,0.179,0.732,0.358,1.242,0.607c-0.342,0.463-0.664,0.901-1.039,1.409
			c-0.371-0.407-0.649-0.711-0.926-1.015c-0.072,0.056-0.145,0.112-0.217,0.168c0.203,0.365,0.406,0.729,0.667,1.196
			c-0.577,0.179-1.087,0.337-1.647,0.51c-0.084-0.492-0.148-0.871-0.213-1.251c-0.066-0.001-0.132-0.001-0.198-0.002
			c-0.068,0.348-0.136,0.696-0.238,1.221c-0.539-0.151-1.063-0.298-1.661-0.466c0.261-0.482,0.46-0.849,0.659-1.217
			c-0.065-0.048-0.13-0.097-0.195-0.145c-0.286,0.3-0.572,0.6-0.944,0.989c-0.347-0.469-0.679-0.918-1.04-1.406
			c0.482-0.228,0.863-0.408,1.244-0.588c-0.028-0.072-0.055-0.144-0.083-0.215c-0.384,0.075-0.769,0.151-1.271,0.249
			c0-0.559,0-1.098,0-1.695c0.442,0.067,0.857,0.13,1.271,0.193c0.025-0.071,0.05-0.142,0.075-0.213
			c-0.355-0.161-0.71-0.322-1.22-0.553c0.325-0.471,0.634-0.919,0.998-1.446c0.375,0.394,0.665,0.699,0.955,1.003
			c0.071-0.043,0.142-0.086,0.214-0.13c-0.193-0.349-0.387-0.699-0.657-1.188c0.55-0.181,1.073-0.354,1.666-0.549
			c0.081,0.523,0.143,0.917,0.204,1.311c0.07,0.008,0.139,0.016,0.209,0.024c0.066-0.396,0.132-0.792,0.22-1.316
			c0.565,0.176,1.093,0.341,1.645,0.514c-0.261,0.486-0.457,0.85-0.653,1.214c0.07,0.044,0.14,0.088,0.21,0.131
			c0.268-0.29,0.536-0.581,0.916-0.992c0.351,0.458,0.682,0.889,1.134,1.478c-0.542,0.123-0.919,0.209-1.29,0.293
			C44.811,33.423,44.937,33.656,45.075,33.664z"/>
		<path fill="#201600" d="M44.632,33.289L44.632,33.289l-0.001,0.001c0.091-0.225,0.184-0.45,0.3-0.732
			c-0.843,0.192-1.64,0.445-2.456,0.539c-0.759,0.087-1.335,0.417-1.283,1.126c0.033,0.446,0.48,1.042,0.903,1.241
			c0.68,0.321,1.169-0.138,1.515-0.781c0.271-0.503,0.68-0.935,1.032-1.395c0.013-0.003,0.026-0.006,0.039-0.009
			c-0.005-0.006-0.011-0.014-0.016-0.02L44.632,33.289z"/>
		<path fill="#201600" d="M19.281,25.568c0.112,0,0.205-0.053,0.281-0.159c0.076-0.106,0.114-0.318,0.114-0.636
			c0-0.32-0.038-0.532-0.114-0.637c-0.076-0.105-0.171-0.158-0.284-0.158c-0.112,0-0.201,0.046-0.267,0.139
			c-0.084,0.118-0.125,0.337-0.125,0.656c0,0.319,0.038,0.531,0.114,0.637C19.076,25.515,19.17,25.568,19.281,25.568z"/>
		<path fill="#201600" d="M19.29,26.915c0.78,0,1.412-0.621,1.412-1.386v-1.486c0-0.766-0.632-1.386-1.412-1.386
			c-0.78,0-1.412,0.621-1.412,1.386v1.486C17.878,26.294,18.51,26.915,19.29,26.915z M18.708,24.218
			c0.048-0.14,0.12-0.248,0.214-0.324c0.095-0.076,0.215-0.114,0.359-0.114c0.106,0,0.199,0.021,0.279,0.063
			c0.08,0.042,0.146,0.102,0.199,0.181c0.052,0.079,0.093,0.175,0.123,0.289c0.03,0.114,0.045,0.267,0.045,0.459
			c0,0.228-0.024,0.412-0.072,0.552c-0.048,0.14-0.119,0.248-0.214,0.325c-0.095,0.076-0.215,0.115-0.36,0.115
			c-0.191,0-0.341-0.067-0.45-0.201c-0.131-0.162-0.196-0.425-0.196-0.79C18.636,24.543,18.66,24.358,18.708,24.218z"/>
		<path fill="#201600" d="M22.914,25.568c0.112,0,0.205-0.053,0.281-0.159c0.076-0.106,0.114-0.318,0.114-0.636
			c0-0.32-0.038-0.532-0.114-0.637c-0.076-0.105-0.171-0.158-0.284-0.158c-0.112,0-0.201,0.046-0.267,0.139
			c-0.084,0.118-0.125,0.337-0.125,0.656c0,0.319,0.038,0.531,0.114,0.637C22.708,25.515,22.802,25.568,22.914,25.568z"/>
		<path fill="#201600" d="M22.918,26.915c0.78,0,1.412-0.621,1.412-1.386v-1.486c0-0.766-0.632-1.386-1.412-1.386
			c-0.78,0-1.412,0.621-1.412,1.386v1.486C21.506,26.294,22.138,26.915,22.918,26.915z M22.34,24.218
			c0.048-0.14,0.12-0.248,0.215-0.324s0.215-0.114,0.359-0.114c0.106,0,0.199,0.021,0.279,0.063s0.146,0.102,0.199,0.181
			c0.052,0.079,0.093,0.175,0.123,0.289c0.03,0.114,0.045,0.267,0.045,0.459c0,0.228-0.024,0.412-0.072,0.552
			c-0.048,0.14-0.119,0.248-0.214,0.325c-0.095,0.076-0.215,0.115-0.36,0.115c-0.191,0-0.341-0.067-0.45-0.201
			c-0.131-0.162-0.196-0.425-0.196-0.79C22.268,24.543,22.292,24.358,22.34,24.218z"/>
		<path fill="#201600" d="M26.543,23.978c-0.112,0-0.201,0.046-0.267,0.139c-0.084,0.118-0.125,0.337-0.125,0.656
			c0,0.319,0.038,0.531,0.114,0.637c0.076,0.106,0.17,0.158,0.281,0.158c0.112,0,0.205-0.053,0.281-0.159
			c0.076-0.106,0.114-0.318,0.114-0.636c0-0.32-0.038-0.532-0.114-0.637C26.751,24.03,26.656,23.978,26.543,23.978z"/>
		<path fill="#201600" d="M27.958,24.043c0-0.766-0.632-1.386-1.412-1.386c-0.78,0-1.412,0.621-1.412,1.386v1.486
			c0,0.766,0.632,1.386,1.412,1.386c0.78,0,1.412-0.621,1.412-1.386V24.043z M27.119,25.325c-0.048,0.14-0.119,0.248-0.214,0.325
			c-0.095,0.076-0.215,0.115-0.36,0.115c-0.191,0-0.341-0.067-0.45-0.201c-0.131-0.162-0.196-0.425-0.196-0.79
			c0-0.23,0.024-0.415,0.072-0.555c0.048-0.14,0.12-0.248,0.215-0.324c0.095-0.076,0.214-0.114,0.359-0.114
			c0.106,0,0.199,0.021,0.279,0.063s0.146,0.102,0.199,0.181c0.052,0.079,0.093,0.175,0.123,0.289
			c0.03,0.114,0.045,0.267,0.045,0.459C27.191,25.001,27.167,25.185,27.119,25.325z"/>
		<path fill="#201600" d="M30.178,25.568c0.112,0,0.205-0.053,0.281-0.159c0.076-0.106,0.114-0.318,0.114-0.636
			c0-0.32-0.038-0.532-0.114-0.637c-0.076-0.105-0.171-0.158-0.284-0.158c-0.112,0-0.201,0.046-0.267,0.139
			c-0.084,0.118-0.125,0.337-0.125,0.656c0,0.319,0.038,0.531,0.114,0.637C29.972,25.515,30.066,25.568,30.178,25.568z"/>
		<path fill="#201600" d="M30.174,26.915c0.78,0,1.412-0.621,1.412-1.386v-1.486c0-0.766-0.632-1.386-1.412-1.386
			c-0.78,0-1.412,0.621-1.412,1.386v1.486C28.761,26.294,29.394,26.915,30.174,26.915z M29.605,24.218
			c0.048-0.14,0.12-0.248,0.214-0.324c0.095-0.076,0.215-0.114,0.359-0.114c0.106,0,0.199,0.021,0.279,0.063
			s0.146,0.102,0.199,0.181c0.052,0.079,0.093,0.175,0.123,0.289c0.03,0.114,0.045,0.267,0.045,0.459
			c0,0.228-0.024,0.412-0.072,0.552c-0.048,0.14-0.119,0.248-0.214,0.325c-0.095,0.076-0.215,0.115-0.36,0.115
			c-0.191,0-0.341-0.067-0.45-0.201c-0.131-0.162-0.196-0.425-0.196-0.79C29.532,24.543,29.556,24.358,29.605,24.218z"/>
		<path fill="#201600" d="M33.81,25.568c0.112,0,0.205-0.053,0.281-0.159c0.076-0.106,0.114-0.318,0.114-0.636
			c0-0.32-0.038-0.532-0.114-0.637c-0.076-0.105-0.171-0.158-0.284-0.158c-0.112,0-0.201,0.046-0.267,0.139
			c-0.084,0.118-0.125,0.337-0.125,0.656c0,0.319,0.038,0.531,0.114,0.637C33.604,25.515,33.698,25.568,33.81,25.568z"/>
		<path fill="#201600" d="M33.802,26.915c0.78,0,1.412-0.621,1.412-1.386v-1.486c0-0.766-0.632-1.386-1.412-1.386
			c-0.78,0-1.412,0.621-1.412,1.386v1.486C32.389,26.294,33.022,26.915,33.802,26.915z M33.237,24.218
			c0.048-0.14,0.12-0.248,0.215-0.324c0.095-0.076,0.215-0.114,0.359-0.114c0.106,0,0.199,0.021,0.279,0.063
			c0.08,0.042,0.146,0.102,0.199,0.181c0.052,0.079,0.093,0.175,0.123,0.289c0.03,0.114,0.045,0.267,0.045,0.459
			c0,0.228-0.024,0.412-0.072,0.552c-0.048,0.14-0.119,0.248-0.214,0.325c-0.095,0.076-0.215,0.115-0.36,0.115
			c-0.191,0-0.341-0.067-0.45-0.201c-0.131-0.162-0.196-0.425-0.196-0.79C33.164,24.543,33.188,24.358,33.237,24.218z"/>
		<path fill="#201600" d="M37.439,23.978c-0.112,0-0.201,0.046-0.267,0.139c-0.084,0.118-0.125,0.337-0.125,0.656
			c0,0.319,0.038,0.531,0.114,0.637c0.076,0.106,0.17,0.158,0.281,0.158c0.112,0,0.205-0.053,0.281-0.159
			c0.076-0.106,0.114-0.318,0.114-0.636c0-0.32-0.038-0.532-0.114-0.637C37.647,24.03,37.553,23.978,37.439,23.978z"/>
		<path fill="#201600" d="M38.842,25.529v-1.486c0-0.766-0.632-1.386-1.412-1.386c-0.78,0-1.412,0.621-1.412,1.386v1.486
			c0,0.766,0.632,1.386,1.412,1.386C38.209,26.915,38.842,26.294,38.842,25.529z M38.016,25.325
			c-0.048,0.14-0.119,0.248-0.214,0.325c-0.095,0.076-0.215,0.115-0.36,0.115c-0.191,0-0.341-0.067-0.45-0.201
			c-0.131-0.162-0.196-0.425-0.196-0.79c0-0.23,0.024-0.415,0.072-0.555c0.048-0.14,0.12-0.248,0.215-0.324
			c0.095-0.076,0.215-0.114,0.359-0.114c0.106,0,0.199,0.021,0.279,0.063s0.146,0.102,0.199,0.181
			c0.052,0.079,0.093,0.175,0.123,0.289c0.03,0.114,0.045,0.267,0.045,0.459C38.087,25.001,38.063,25.185,38.016,25.325z"/>
		<path fill="#201600" d="M41.074,25.568c0.112,0,0.205-0.053,0.281-0.159c0.076-0.106,0.114-0.318,0.114-0.636
			c0-0.32-0.038-0.532-0.114-0.637c-0.076-0.105-0.171-0.158-0.284-0.158c-0.112,0-0.201,0.046-0.267,0.139
			c-0.084,0.118-0.125,0.337-0.125,0.656c0,0.319,0.038,0.531,0.114,0.637C40.869,25.515,40.962,25.568,41.074,25.568z"/>
		<path fill="#201600" d="M41.057,26.915c0.78,0,1.412-0.621,1.412-1.386v-1.486c0-0.766-0.632-1.386-1.412-1.386
			c-0.78,0-1.412,0.621-1.412,1.386v1.486C39.645,26.294,40.278,26.915,41.057,26.915z M40.501,24.218
			c0.048-0.14,0.12-0.248,0.215-0.324c0.095-0.076,0.214-0.114,0.359-0.114c0.106,0,0.199,0.021,0.279,0.063
			s0.146,0.102,0.199,0.181c0.052,0.079,0.093,0.175,0.123,0.289c0.03,0.114,0.045,0.267,0.045,0.459
			c0,0.228-0.024,0.412-0.072,0.552c-0.048,0.14-0.119,0.248-0.214,0.325c-0.095,0.076-0.215,0.115-0.36,0.115
			c-0.191,0-0.341-0.067-0.45-0.201c-0.131-0.162-0.196-0.425-0.196-0.79C40.429,24.543,40.453,24.358,40.501,24.218z"/>
		<path fill="#201600" d="M44.425,25.41c0.076,0.106,0.17,0.158,0.281,0.158c0.112,0,0.205-0.053,0.281-0.159
			c0.076-0.106,0.114-0.318,0.114-0.636c0-0.32-0.038-0.532-0.114-0.637c-0.076-0.105-0.171-0.158-0.284-0.158
			c-0.112,0-0.201,0.046-0.267,0.139c-0.084,0.118-0.125,0.337-0.125,0.656C44.311,25.092,44.348,25.304,44.425,25.41z"/>
		<path fill="#201600" d="M43.273,24.043v1.486c0,0.766,0.632,1.386,1.412,1.386c0.78,0,1.412-0.621,1.412-1.386v-1.486
			c0-0.766-0.632-1.386-1.412-1.386C43.905,22.656,43.273,23.277,43.273,24.043z M44.985,23.843c0.08,0.042,0.146,0.102,0.199,0.181
			c0.052,0.079,0.093,0.175,0.123,0.289c0.03,0.114,0.045,0.267,0.045,0.459c0,0.228-0.024,0.412-0.072,0.552
			c-0.048,0.14-0.119,0.248-0.214,0.325c-0.095,0.076-0.215,0.115-0.36,0.115c-0.191,0-0.341-0.067-0.45-0.201
			c-0.131-0.162-0.196-0.425-0.196-0.79c0-0.23,0.024-0.415,0.072-0.555c0.048-0.14,0.12-0.248,0.214-0.324
			c0.095-0.076,0.215-0.114,0.359-0.114C44.812,23.78,44.905,23.801,44.985,23.843z"/>
	</g>
</g>
<g id="Слой_7">
</g>
<g id="Слой_8">
</g>
</svg>
