<?xml version="1.0" encoding="utf-8"?>
<!-- Generator: Adobe Illustrator 17.0.0, SVG Export Plug-In . SVG Version: 6.00 Build 0)  -->
<svg version="1.2" baseProfile="tiny" xmlns="http://www.w3.org/2000/svg" xmlns:xlink="http://www.w3.org/1999/xlink" x="0px"
	 y="0px" width="64px" height="64px" viewBox="0 0 64 64" xml:space="preserve">
<g id="Слой_1">
</g>
<g id="Слой_2">
</g>
<g id="Слой_3">
	<g>
		<path fill="#201600" d="M57,10.577c0-1.838-1.495-3.333-3.333-3.333H10.333C8.495,7.244,7,8.739,7,10.577
			c0,1.549,1.067,2.843,2.5,3.215v40.463l2.5-2.5l5,5l5-5l5,5l5-5l5,5l5-5l5,5l5-5l2.5,2.5V13.792C55.933,13.42,57,12.127,57,10.577
			z M52.833,50.233L52,49.399l-5,5l-5-5l-5,5l-5-5l-5,5l-5-5l-5,5l-5-5l-0.833,0.833V13.911v-2.5h41.667v2.5V50.233z M54.5,12.02
			V9.744h-45v2.276c-0.497-0.288-0.833-0.827-0.833-1.443c0-0.919,0.747-1.667,1.667-1.667h43.333c0.919,0,1.667,0.747,1.667,1.667
			C55.333,11.193,54.998,11.732,54.5,12.02z"/>
		<path fill="#201600" d="M45.452,40.577h-12.5c-0.46,0-0.833,0.372-0.833,0.833s0.373,0.833,0.833,0.833h12.5
			c0.46,0,0.833-0.373,0.833-0.833S45.912,40.577,45.452,40.577z"/>
		<path fill="#201600" d="M49.027,40.819c-0.15,0.157-0.242,0.366-0.242,0.592c0,0.217,0.092,0.433,0.242,0.592
			c0.158,0.15,0.375,0.242,0.592,0.242c0.217,0,0.433-0.092,0.592-0.242c0.15-0.158,0.242-0.375,0.242-0.592
			c0-0.226-0.092-0.434-0.242-0.592C49.894,40.511,49.344,40.511,49.027,40.819z"/>
		<path fill="#201600" d="M49.619,28.911h-12.5c-0.46,0-0.833,0.373-0.833,0.833s0.373,0.833,0.833,0.833h12.5
			c0.46,0,0.833-0.373,0.833-0.833S50.079,28.911,49.619,28.911z"/>
		<path fill="#201600" d="M49.619,34.744h-8.333c-0.46,0-0.833,0.372-0.833,0.833s0.373,0.833,0.833,0.833h8.333
			c0.46,0,0.833-0.372,0.833-0.833S50.079,34.744,49.619,34.744z"/>
		<path fill="#201600" d="M32.119,35.577c0,0.461,0.373,0.833,0.833,0.833h1.667c0.46,0,0.833-0.372,0.833-0.833
			s-0.373-0.833-0.833-0.833h-1.667C32.492,34.744,32.119,35.117,32.119,35.577z"/>
		<path fill="#201600" d="M46.286,23.911c0-0.461-0.373-0.833-0.833-0.833h-12.5c-0.46,0-0.833,0.372-0.833,0.833
			c0,0.461,0.373,0.833,0.833,0.833h12.5C45.912,24.744,46.286,24.372,46.286,23.911z"/>
		<path fill="#201600" d="M49.027,23.319c-0.15,0.157-0.242,0.366-0.242,0.592c0,0.217,0.092,0.433,0.242,0.592
			c0.158,0.15,0.375,0.242,0.592,0.242c0.225,0,0.433-0.092,0.592-0.242c0.15-0.158,0.242-0.375,0.242-0.592
			s-0.092-0.434-0.242-0.592C49.902,23.011,49.336,23.011,49.027,23.319z"/>
		<path fill="#201600" d="M34.377,30.336c0.15-0.158,0.242-0.367,0.242-0.592c0-0.226-0.092-0.434-0.242-0.592
			c-0.308-0.308-0.867-0.308-1.183,0c-0.15,0.157-0.242,0.366-0.242,0.592c0,0.225,0.092,0.433,0.242,0.592
			c0.158,0.15,0.375,0.242,0.592,0.242C34.002,30.577,34.219,30.486,34.377,30.336z"/>
		<path fill="#201600" d="M38.544,36.169c0.15-0.158,0.242-0.367,0.242-0.592c0-0.226-0.092-0.442-0.242-0.592
			c-0.308-0.308-0.867-0.308-1.183,0c-0.15,0.158-0.242,0.375-0.242,0.592c0,0.217,0.092,0.433,0.242,0.592
			c0.158,0.15,0.375,0.242,0.592,0.242C38.169,36.411,38.386,36.319,38.544,36.169z"/>
		<circle fill="#201600" cx="40.333" cy="16.411" r="0.833"/>
		<circle fill="#201600" cx="37" cy="16.411" r="0.833"/>
		<circle fill="#201600" cx="43.667" cy="16.411" r="0.833"/>
		<circle fill="#201600" cx="33.667" cy="16.411" r="0.833"/>
		<circle fill="#201600" cx="47" cy="16.411" r="0.833"/>
		<circle fill="#201600" cx="23.667" cy="16.411" r="0.833"/>
		<circle fill="#201600" cx="27" cy="16.411" r="0.833"/>
		<circle fill="#201600" cx="30.333" cy="16.411" r="0.833"/>
		<circle fill="#201600" cx="50.333" cy="16.411" r="0.833"/>
		<circle fill="#201600" cx="20.333" cy="16.411" r="0.833"/>
		<circle fill="#201600" cx="17" cy="16.411" r="0.833"/>
		<circle fill="#201600" cx="13.667" cy="16.411" r="0.833"/>
		<path fill="#201600" d="M22.182,21.551c-0.354,0-0.573,0.021-0.553,0.021h-5.443v11.522h-2.561v1.923l2.561-0.001v1.918h-2.561
			v1.923h2.561v3.841h1.923v-3.841h4.481v-1.923h-4.481v-1.919l3.432-0.003c0.036,0.003,0.263,0.022,0.62,0.022
			c1.303,0,3.755-0.242,5.532-1.866c1.286-1.174,1.938-2.814,1.938-4.875s-0.652-3.701-1.938-4.875
			C25.849,21.733,23.225,21.551,22.182,21.551z M27.709,28.294c0.001,1.495-0.439,2.656-1.307,3.451
			c-1.345,1.232-3.44,1.365-4.278,1.365c-0.263,0-0.432-0.012-0.494-0.016h-3.52v-9.6l3.608-0.003
			c0.018-0.002,0.179-0.014,0.437-0.014c0.827,0,2.896,0.133,4.242,1.362C27.267,25.633,27.709,26.795,27.709,28.294z"/>
	</g>
</g>
<g id="Слой_4">
</g>
<g id="Слой_5">
</g>
<g id="Слой_6">
</g>
<g id="Слой_7">
</g>
<g id="Слой_8">
</g>
</svg>
