<?xml version="1.0" encoding="utf-8"?>
<!-- Generator: Adobe Illustrator 17.0.0, SVG Export Plug-In . SVG Version: 6.00 Build 0)  -->
<svg version="1.2" baseProfile="tiny" xmlns="http://www.w3.org/2000/svg" xmlns:xlink="http://www.w3.org/1999/xlink" x="0px"
	 y="0px" width="64px" height="64px" viewBox="0 0 64 64" xml:space="preserve">
<g id="Слой_1">
	<g>
		<path fill="#201600" d="M39.003,25.5c-1.013,0-1.932,0-2.875,0c-0.215-0.742-0.431-1.489-0.647-2.236
			c-0.042,0.005-0.083,0.009-0.125,0.014c0,0.732,0,1.465,0,2.236c-0.981,0-1.898,0-2.853,0c0,2.18,0,4.319,0,6.526
			c5.913,0,11.834,0,17.805,0c0,2.175,0,4.285,0,6.376c1.99,0.707,2.815,1.729,2.56,3.124c-0.24,1.312-1.384,2.253-2.768,2.277
			c-1.337,0.024-2.569-0.885-2.833-2.088c-0.312-1.422,0.413-2.536,2.117-3.217c0-1.84,0-3.693,0-5.585c-5.629,0-11.26,0-16.932,0
			c-0.01,0.172-0.028,0.328-0.028,0.484c-0.002,1.539,0.006,3.078-0.008,4.617c-0.003,0.311,0.062,0.468,0.423,0.569
			c1.44,0.401,2.236,1.623,2.008,3.005c-0.206,1.246-1.396,2.2-2.764,2.216c-1.403,0.016-2.597-0.923-2.851-2.243
			c-0.245-1.273,0.565-2.507,1.947-2.966c0.111-0.037,0.22-0.077,0.331-0.116c0-1.855,0-3.694,0-5.569c-5.692,0-11.361,0-17.062,0
			c0,1.849,0,3.685,0,5.559c0.893,0.178,1.629,0.601,2.091,1.375c0.33,0.554,0.422,1.153,0.307,1.769
			c-0.229,1.235-1.408,2.164-2.743,2.19c-1.341,0.026-2.534-0.847-2.841-2.08c-0.35-1.407,0.387-2.492,2.252-3.274
			c0-2.096,0-4.208,0-6.382c6.011,0,11.986,0,18.002,0c0-2.199,0-4.337,0-6.545c-0.924,0-1.868,0-2.849,0c0-0.783,0-1.498,0-2.214
			c-0.048-0.009-0.097-0.017-0.145-0.026c-0.15,0.608-0.334,1.21-0.437,1.825c-0.056,0.335-0.193,0.417-0.527,0.409
			c-0.8-0.019-1.601-0.006-2.457-0.006c0.373-2.467,0.877-4.829,2.573-6.786c2.134-2.461,6.409-2.479,8.584-0.047
			c1.285,1.437,1.929,3.154,2.371,4.948C38.775,24.242,38.874,24.853,39.003,25.5z M32.054,24.216
			c0.589-0.368,0.801-0.828,0.735-1.479c-0.146-1.45-0.22-2.906-0.309-4.36c-0.016-0.269-0.126-0.359-0.406-0.362
			c-0.301-0.004-0.417,0.088-0.434,0.382c-0.087,1.47-0.158,2.943-0.315,4.408C31.256,23.456,31.51,23.867,32.054,24.216z
			 M31.447,17.177c0.124,0.391-0.042,0.856,0.671,0.813c0.678-0.041,0.38-0.494,0.543-0.813
			C32.245,17.177,31.884,17.177,31.447,17.177z"/>
		<path fill="#201600" d="M10.497,50.611c-0.174,0.712-0.349,1.425-0.528,2.155c-0.942,0-1.876,0-2.969,0
			c0.337-1.305,0.586-2.577,1.008-3.796c0.296-0.856,0.734-1.7,1.271-2.446c2.267-3.148,7.038-3.165,9.374-0.064
			c1.271,1.687,1.84,3.625,2.218,5.625c0.041,0.216,0.066,0.434,0.105,0.701c-0.909,0-1.777,0.012-2.645-0.015
			c-0.113-0.004-0.277-0.195-0.317-0.326c-0.189-0.61-0.343-1.23-0.632-1.838c0,0.7,0,1.4,0,2.14c-2.276,0-4.485,0-6.743,0
			c0-0.715,0-1.429,0-2.143C10.592,50.607,10.544,50.609,10.497,50.611z M13.669,45.365c-0.027,0.287-0.055,0.524-0.071,0.762
			c-0.087,1.307-0.11,2.622-0.279,3.92c-0.092,0.706,0.224,1.095,0.724,1.461c0.626-0.405,0.853-0.898,0.725-1.609
			c-0.135-0.752-0.112-1.528-0.164-2.293c-0.05-0.743-0.109-1.485-0.164-2.241c-0.181-0.009-0.298-0.019-0.415-0.019
			C13.925,45.346,13.825,45.356,13.669,45.365z M13.505,44.44c0.008,0.81,0.041,0.855,0.586,0.845
			c0.466-0.008,0.535-0.122,0.494-0.845C14.237,44.44,13.887,44.44,13.505,44.44z"/>
		<path fill="#201600" d="M38.996,52.76c-0.998,0-1.932,0-2.875,0c-0.211-0.733-0.422-1.465-0.633-2.197
			c-0.042,0.005-0.084,0.01-0.125,0.014c0,0.719,0,1.438,0,2.183c-2.255,0-4.452,0-6.697,0c0-0.724,0-1.434,0-2.145
			c-0.05-0.008-0.1-0.016-0.151-0.024c-0.146,0.592-0.333,1.178-0.424,1.777c-0.056,0.365-0.212,0.436-0.562,0.427
			c-0.799-0.021-1.599-0.007-2.431-0.007c0.331-2.198,0.78-4.294,2.07-6.136c1.791-2.556,5.2-3.248,7.959-1.617
			c0.315,0.186,0.615,0.414,0.865,0.672C37.921,47.696,38.543,50.172,38.996,52.76z M31.661,45.376
			c-0.108,1.61-0.175,3.179-0.337,4.74c-0.069,0.663,0.238,1.042,0.725,1.399c0.538-0.377,0.849-0.802,0.739-1.469
			c-0.104-0.631-0.097-1.278-0.142-1.917c-0.064-0.908-0.13-1.816-0.197-2.752C32.183,45.376,31.953,45.376,31.661,45.376z
			 M31.487,44.445c0.087,0.857,0.095,0.862,0.664,0.842c0.665-0.023,0.338-0.518,0.512-0.842
			C32.237,44.445,31.878,44.445,31.487,44.445z"/>
		<path fill="#201600" d="M46.632,52.759c0-0.75,0-1.458,0-2.167c-0.038-0.005-0.076-0.011-0.114-0.016
			c-0.179,0.722-0.358,1.443-0.543,2.189c-0.927,0-1.859,0-2.923,0c0.24-1.053,0.443-2.067,0.708-3.066
			c0.315-1.189,0.834-2.301,1.599-3.303c2.237-2.93,6.832-3,9.151-0.129c1.29,1.596,1.882,3.463,2.288,5.393
			c0.073,0.345,0.124,0.693,0.201,1.124c-0.94,0-1.851,0.008-2.76-0.014c-0.075-0.002-0.176-0.198-0.212-0.317
			c-0.185-0.62-0.353-1.245-0.527-1.868c-0.048,0.007-0.096,0.013-0.144,0.02c0,0.709,0,1.417,0,2.155
			C51.1,52.759,48.903,52.759,46.632,52.759z M50.175,51.581c0.215-0.375,0.595-0.735,0.598-1.097
			c0.007-1.135-0.128-2.27-0.207-3.406c-0.039-0.569-0.076-1.138-0.115-1.736c-0.301,0.012-0.529,0.022-0.783,0.032
			c-0.019,0.257-0.034,0.463-0.049,0.668c-0.092,1.327-0.138,2.659-0.294,3.98C49.244,50.71,49.505,51.147,50.175,51.581z
			 M49.475,44.439c0.116,0.379-0.135,0.88,0.576,0.849c0.521-0.022,0.574-0.081,0.553-0.849
			C50.255,44.439,49.905,44.439,49.475,44.439z"/>
		<path fill="#201600" d="M32.044,16.524c-1.577,0-2.844-1.177-2.849-2.648c-0.005-1.49,1.276-2.681,2.875-2.673
			c1.57,0.008,2.835,1.205,2.825,2.673C34.885,15.35,33.621,16.524,32.044,16.524z"/>
	</g>
</g>
<g id="Слой_2">
</g>
<g id="Слой_3">
</g>
<g id="Слой_4">
</g>
<g id="Слой_5">
</g>
<g id="Слой_6">
</g>
<g id="Слой_7">
</g>
<g id="Слой_8">
</g>
</svg>
